; NON-PLATED HOLES START AT T1
; THROUGH (PLATED) HOLES START AT T100
M48
INCH
T1C0.118110
T100C0.027559
T101C0.042000
T102C0.035000
T103C0.038000
%
T1
X001400Y007169
T100
X012401Y005169
X011613Y005169
X008400Y005169
X007613Y005169
X003613Y005169
X004400Y005169
T101
X005400Y002169
X004400Y002169
X003400Y002169
T102
X001400Y005169
X009400Y001169
X010401Y003169
X013401Y001169
X001400Y001169
X008400Y003169
X009400Y003169
T103
X014401Y003169
X012401Y003169
X013401Y003169
T00
M30
