G04 MADE WITH FRITZING*
G04 WWW.FRITZING.ORG*
G04 DOUBLE SIDED*
G04 HOLES PLATED*
G04 CONTOUR ON CENTER OF CONTOUR VECTOR*
%ASAXBY*%
%FSLAX23Y23*%
%MOIN*%
%OFA0B0*%
%SFA1.0B1.0*%
%ADD10C,0.010000*%
%ADD11C,0.005000*%
%ADD12C,0.008000*%
%ADD13R,0.001000X0.001000*%
%LNSILK1*%
G90*
G70*
G54D10*
X1490Y367D02*
X1190Y367D01*
D02*
X1190Y367D02*
X1190Y267D01*
D02*
X1190Y267D02*
X1490Y267D01*
D02*
X1490Y267D02*
X1490Y367D01*
D02*
X173Y407D02*
X173Y207D01*
D02*
X173Y207D02*
X107Y207D01*
D02*
X107Y207D02*
X107Y407D01*
D02*
X107Y407D02*
X173Y407D01*
D02*
X870Y381D02*
X1010Y381D01*
D02*
X1050Y150D02*
X1250Y150D01*
D02*
X1250Y150D02*
X1250Y84D01*
D02*
X1250Y84D02*
X1050Y84D01*
D02*
X1050Y84D02*
X1050Y150D01*
D02*
X240Y337D02*
X640Y337D01*
D02*
X640Y337D02*
X640Y157D01*
D02*
X640Y157D02*
X240Y157D01*
D02*
X240Y157D02*
X240Y337D01*
D02*
X240Y337D02*
X640Y337D01*
D02*
X640Y337D02*
X640Y277D01*
D02*
X640Y277D02*
X240Y277D01*
D02*
X240Y277D02*
X240Y337D01*
G54D11*
D02*
X370Y337D02*
X370Y277D01*
D02*
X510Y337D02*
X510Y277D01*
G54D12*
D02*
X1122Y517D02*
X1122Y446D01*
D02*
X1122Y446D02*
X1083Y446D01*
D02*
X1083Y446D02*
X1083Y753D01*
D02*
X1083Y753D02*
X1319Y753D01*
D02*
X1319Y753D02*
X1319Y446D01*
D02*
X1319Y446D02*
X1279Y446D01*
D02*
X1279Y446D02*
X1279Y517D01*
D02*
X722Y517D02*
X722Y446D01*
D02*
X722Y446D02*
X683Y446D01*
D02*
X683Y446D02*
X683Y753D01*
D02*
X683Y753D02*
X919Y753D01*
D02*
X919Y753D02*
X919Y446D01*
D02*
X919Y446D02*
X879Y446D01*
D02*
X879Y446D02*
X879Y517D01*
D02*
X322Y517D02*
X322Y446D01*
D02*
X322Y446D02*
X283Y446D01*
D02*
X283Y446D02*
X283Y753D01*
D02*
X283Y753D02*
X519Y753D01*
D02*
X519Y753D02*
X519Y446D01*
D02*
X519Y446D02*
X479Y446D01*
D02*
X479Y446D02*
X479Y517D01*
G54D13*
X0Y840D02*
X1537Y840D01*
X0Y839D02*
X1537Y839D01*
X0Y838D02*
X1537Y838D01*
X0Y837D02*
X1537Y837D01*
X0Y836D02*
X1537Y836D01*
X0Y835D02*
X1537Y835D01*
X0Y834D02*
X1537Y834D01*
X0Y833D02*
X1537Y833D01*
X0Y832D02*
X7Y832D01*
X1530Y832D02*
X1537Y832D01*
X0Y831D02*
X7Y831D01*
X1530Y831D02*
X1537Y831D01*
X0Y830D02*
X7Y830D01*
X1530Y830D02*
X1537Y830D01*
X0Y829D02*
X7Y829D01*
X1530Y829D02*
X1537Y829D01*
X0Y828D02*
X7Y828D01*
X1530Y828D02*
X1537Y828D01*
X0Y827D02*
X7Y827D01*
X1530Y827D02*
X1537Y827D01*
X0Y826D02*
X7Y826D01*
X1530Y826D02*
X1537Y826D01*
X0Y825D02*
X7Y825D01*
X1530Y825D02*
X1537Y825D01*
X0Y824D02*
X7Y824D01*
X1530Y824D02*
X1537Y824D01*
X0Y823D02*
X7Y823D01*
X1530Y823D02*
X1537Y823D01*
X0Y822D02*
X7Y822D01*
X1530Y822D02*
X1537Y822D01*
X0Y821D02*
X7Y821D01*
X1530Y821D02*
X1537Y821D01*
X0Y820D02*
X7Y820D01*
X1530Y820D02*
X1537Y820D01*
X0Y819D02*
X7Y819D01*
X1530Y819D02*
X1537Y819D01*
X0Y818D02*
X7Y818D01*
X1530Y818D02*
X1537Y818D01*
X0Y817D02*
X7Y817D01*
X1530Y817D02*
X1537Y817D01*
X0Y816D02*
X7Y816D01*
X1530Y816D02*
X1537Y816D01*
X0Y815D02*
X7Y815D01*
X1530Y815D02*
X1537Y815D01*
X0Y814D02*
X7Y814D01*
X1530Y814D02*
X1537Y814D01*
X0Y813D02*
X7Y813D01*
X1530Y813D02*
X1537Y813D01*
X0Y812D02*
X7Y812D01*
X1530Y812D02*
X1537Y812D01*
X0Y811D02*
X7Y811D01*
X1530Y811D02*
X1537Y811D01*
X0Y810D02*
X7Y810D01*
X1530Y810D02*
X1537Y810D01*
X0Y809D02*
X7Y809D01*
X1530Y809D02*
X1537Y809D01*
X0Y808D02*
X7Y808D01*
X1530Y808D02*
X1537Y808D01*
X0Y807D02*
X7Y807D01*
X1530Y807D02*
X1537Y807D01*
X0Y806D02*
X7Y806D01*
X1530Y806D02*
X1537Y806D01*
X0Y805D02*
X7Y805D01*
X1530Y805D02*
X1537Y805D01*
X0Y804D02*
X7Y804D01*
X1530Y804D02*
X1537Y804D01*
X0Y803D02*
X7Y803D01*
X1530Y803D02*
X1537Y803D01*
X0Y802D02*
X7Y802D01*
X1530Y802D02*
X1537Y802D01*
X0Y801D02*
X7Y801D01*
X1530Y801D02*
X1537Y801D01*
X0Y800D02*
X7Y800D01*
X1530Y800D02*
X1537Y800D01*
X0Y799D02*
X7Y799D01*
X1530Y799D02*
X1537Y799D01*
X0Y798D02*
X7Y798D01*
X1530Y798D02*
X1537Y798D01*
X0Y797D02*
X7Y797D01*
X1530Y797D02*
X1537Y797D01*
X0Y796D02*
X7Y796D01*
X1530Y796D02*
X1537Y796D01*
X0Y795D02*
X7Y795D01*
X1530Y795D02*
X1537Y795D01*
X0Y794D02*
X7Y794D01*
X1530Y794D02*
X1537Y794D01*
X0Y793D02*
X7Y793D01*
X1530Y793D02*
X1537Y793D01*
X0Y792D02*
X7Y792D01*
X1530Y792D02*
X1537Y792D01*
X0Y791D02*
X7Y791D01*
X1530Y791D02*
X1537Y791D01*
X0Y790D02*
X7Y790D01*
X1530Y790D02*
X1537Y790D01*
X0Y789D02*
X7Y789D01*
X1530Y789D02*
X1537Y789D01*
X0Y788D02*
X7Y788D01*
X1530Y788D02*
X1537Y788D01*
X0Y787D02*
X7Y787D01*
X1530Y787D02*
X1537Y787D01*
X0Y786D02*
X7Y786D01*
X1530Y786D02*
X1537Y786D01*
X0Y785D02*
X7Y785D01*
X1530Y785D02*
X1537Y785D01*
X0Y784D02*
X7Y784D01*
X1530Y784D02*
X1537Y784D01*
X0Y783D02*
X7Y783D01*
X1530Y783D02*
X1537Y783D01*
X0Y782D02*
X7Y782D01*
X1530Y782D02*
X1537Y782D01*
X0Y781D02*
X7Y781D01*
X1530Y781D02*
X1537Y781D01*
X0Y780D02*
X7Y780D01*
X1530Y780D02*
X1537Y780D01*
X0Y779D02*
X7Y779D01*
X1530Y779D02*
X1537Y779D01*
X0Y778D02*
X7Y778D01*
X1530Y778D02*
X1537Y778D01*
X0Y777D02*
X7Y777D01*
X1530Y777D02*
X1537Y777D01*
X0Y776D02*
X7Y776D01*
X1530Y776D02*
X1537Y776D01*
X0Y775D02*
X7Y775D01*
X1530Y775D02*
X1537Y775D01*
X0Y774D02*
X7Y774D01*
X1530Y774D02*
X1537Y774D01*
X0Y773D02*
X7Y773D01*
X1530Y773D02*
X1537Y773D01*
X0Y772D02*
X7Y772D01*
X1530Y772D02*
X1537Y772D01*
X0Y771D02*
X7Y771D01*
X1530Y771D02*
X1537Y771D01*
X0Y770D02*
X7Y770D01*
X1530Y770D02*
X1537Y770D01*
X0Y769D02*
X7Y769D01*
X1530Y769D02*
X1537Y769D01*
X0Y768D02*
X7Y768D01*
X1530Y768D02*
X1537Y768D01*
X0Y767D02*
X7Y767D01*
X1530Y767D02*
X1537Y767D01*
X0Y766D02*
X7Y766D01*
X1530Y766D02*
X1537Y766D01*
X0Y765D02*
X7Y765D01*
X1530Y765D02*
X1537Y765D01*
X0Y764D02*
X7Y764D01*
X1530Y764D02*
X1537Y764D01*
X0Y763D02*
X7Y763D01*
X1530Y763D02*
X1537Y763D01*
X0Y762D02*
X7Y762D01*
X1530Y762D02*
X1537Y762D01*
X0Y761D02*
X7Y761D01*
X1530Y761D02*
X1537Y761D01*
X0Y760D02*
X7Y760D01*
X1530Y760D02*
X1537Y760D01*
X0Y759D02*
X7Y759D01*
X1530Y759D02*
X1537Y759D01*
X0Y758D02*
X7Y758D01*
X1530Y758D02*
X1537Y758D01*
X0Y757D02*
X7Y757D01*
X1530Y757D02*
X1537Y757D01*
X0Y756D02*
X7Y756D01*
X1530Y756D02*
X1537Y756D01*
X0Y755D02*
X7Y755D01*
X1530Y755D02*
X1537Y755D01*
X0Y754D02*
X7Y754D01*
X1530Y754D02*
X1537Y754D01*
X0Y753D02*
X7Y753D01*
X1530Y753D02*
X1537Y753D01*
X0Y752D02*
X7Y752D01*
X1530Y752D02*
X1537Y752D01*
X0Y751D02*
X7Y751D01*
X1530Y751D02*
X1537Y751D01*
X0Y750D02*
X7Y750D01*
X1530Y750D02*
X1537Y750D01*
X0Y749D02*
X7Y749D01*
X1530Y749D02*
X1537Y749D01*
X0Y748D02*
X7Y748D01*
X1530Y748D02*
X1537Y748D01*
X0Y747D02*
X7Y747D01*
X1530Y747D02*
X1537Y747D01*
X0Y746D02*
X7Y746D01*
X1530Y746D02*
X1537Y746D01*
X0Y745D02*
X7Y745D01*
X1530Y745D02*
X1537Y745D01*
X0Y744D02*
X7Y744D01*
X1530Y744D02*
X1537Y744D01*
X0Y743D02*
X7Y743D01*
X1530Y743D02*
X1537Y743D01*
X0Y742D02*
X7Y742D01*
X1530Y742D02*
X1537Y742D01*
X0Y741D02*
X7Y741D01*
X1530Y741D02*
X1537Y741D01*
X0Y740D02*
X7Y740D01*
X1530Y740D02*
X1537Y740D01*
X0Y739D02*
X7Y739D01*
X1530Y739D02*
X1537Y739D01*
X0Y738D02*
X7Y738D01*
X1530Y738D02*
X1537Y738D01*
X0Y737D02*
X7Y737D01*
X1530Y737D02*
X1537Y737D01*
X0Y736D02*
X7Y736D01*
X1530Y736D02*
X1537Y736D01*
X0Y735D02*
X7Y735D01*
X1530Y735D02*
X1537Y735D01*
X0Y734D02*
X7Y734D01*
X1530Y734D02*
X1537Y734D01*
X0Y733D02*
X7Y733D01*
X1530Y733D02*
X1537Y733D01*
X0Y732D02*
X7Y732D01*
X1530Y732D02*
X1537Y732D01*
X0Y731D02*
X7Y731D01*
X1530Y731D02*
X1537Y731D01*
X0Y730D02*
X7Y730D01*
X1530Y730D02*
X1537Y730D01*
X0Y729D02*
X7Y729D01*
X1530Y729D02*
X1537Y729D01*
X0Y728D02*
X7Y728D01*
X1530Y728D02*
X1537Y728D01*
X0Y727D02*
X7Y727D01*
X1530Y727D02*
X1537Y727D01*
X0Y726D02*
X7Y726D01*
X1530Y726D02*
X1537Y726D01*
X0Y725D02*
X7Y725D01*
X1530Y725D02*
X1537Y725D01*
X0Y724D02*
X7Y724D01*
X737Y724D02*
X761Y724D01*
X1530Y724D02*
X1537Y724D01*
X0Y723D02*
X7Y723D01*
X737Y723D02*
X763Y723D01*
X1530Y723D02*
X1537Y723D01*
X0Y722D02*
X7Y722D01*
X341Y722D02*
X344Y722D01*
X389Y722D02*
X422Y722D01*
X441Y722D02*
X459Y722D01*
X737Y722D02*
X765Y722D01*
X1114Y722D02*
X1137Y722D01*
X1530Y722D02*
X1537Y722D01*
X0Y721D02*
X7Y721D01*
X340Y721D02*
X345Y721D01*
X389Y721D02*
X423Y721D01*
X440Y721D02*
X461Y721D01*
X737Y721D02*
X766Y721D01*
X795Y721D02*
X799Y721D01*
X1114Y721D02*
X1140Y721D01*
X1530Y721D02*
X1537Y721D01*
X0Y720D02*
X7Y720D01*
X339Y720D02*
X345Y720D01*
X389Y720D02*
X423Y720D01*
X440Y720D02*
X462Y720D01*
X737Y720D02*
X767Y720D01*
X795Y720D02*
X800Y720D01*
X1114Y720D02*
X1141Y720D01*
X1530Y720D02*
X1537Y720D01*
X0Y719D02*
X7Y719D01*
X339Y719D02*
X345Y719D01*
X389Y719D02*
X423Y719D01*
X440Y719D02*
X463Y719D01*
X737Y719D02*
X768Y719D01*
X794Y719D02*
X800Y719D01*
X1114Y719D02*
X1143Y719D01*
X1222Y719D02*
X1226Y719D01*
X1272Y719D02*
X1276Y719D01*
X1530Y719D02*
X1537Y719D01*
X0Y718D02*
X7Y718D01*
X339Y718D02*
X345Y718D01*
X389Y718D02*
X423Y718D01*
X440Y718D02*
X464Y718D01*
X737Y718D02*
X769Y718D01*
X794Y718D02*
X800Y718D01*
X1114Y718D02*
X1144Y718D01*
X1221Y718D02*
X1226Y718D01*
X1272Y718D02*
X1277Y718D01*
X1530Y718D02*
X1537Y718D01*
X0Y717D02*
X7Y717D01*
X339Y717D02*
X345Y717D01*
X389Y717D02*
X422Y717D01*
X441Y717D02*
X464Y717D01*
X737Y717D02*
X743Y717D01*
X761Y717D02*
X769Y717D01*
X794Y717D02*
X800Y717D01*
X1114Y717D02*
X1144Y717D01*
X1221Y717D02*
X1227Y717D01*
X1271Y717D02*
X1277Y717D01*
X1530Y717D02*
X1537Y717D01*
X0Y716D02*
X7Y716D01*
X339Y716D02*
X345Y716D01*
X389Y716D02*
X421Y716D01*
X442Y716D02*
X465Y716D01*
X737Y716D02*
X743Y716D01*
X762Y716D02*
X770Y716D01*
X794Y716D02*
X800Y716D01*
X1114Y716D02*
X1145Y716D01*
X1221Y716D02*
X1227Y716D01*
X1271Y716D02*
X1277Y716D01*
X1530Y716D02*
X1537Y716D01*
X0Y715D02*
X7Y715D01*
X339Y715D02*
X345Y715D01*
X389Y715D02*
X396Y715D01*
X447Y715D02*
X453Y715D01*
X458Y715D02*
X465Y715D01*
X737Y715D02*
X743Y715D01*
X763Y715D02*
X770Y715D01*
X794Y715D02*
X800Y715D01*
X1114Y715D02*
X1120Y715D01*
X1137Y715D02*
X1146Y715D01*
X1221Y715D02*
X1227Y715D01*
X1271Y715D02*
X1277Y715D01*
X1530Y715D02*
X1537Y715D01*
X0Y714D02*
X7Y714D01*
X339Y714D02*
X345Y714D01*
X389Y714D02*
X396Y714D01*
X447Y714D02*
X453Y714D01*
X459Y714D02*
X466Y714D01*
X737Y714D02*
X743Y714D01*
X764Y714D02*
X770Y714D01*
X794Y714D02*
X800Y714D01*
X1114Y714D02*
X1120Y714D01*
X1139Y714D02*
X1146Y714D01*
X1221Y714D02*
X1227Y714D01*
X1271Y714D02*
X1277Y714D01*
X1530Y714D02*
X1537Y714D01*
X0Y713D02*
X7Y713D01*
X339Y713D02*
X345Y713D01*
X389Y713D02*
X396Y713D01*
X447Y713D02*
X453Y713D01*
X460Y713D02*
X466Y713D01*
X737Y713D02*
X743Y713D01*
X764Y713D02*
X770Y713D01*
X794Y713D02*
X800Y713D01*
X1114Y713D02*
X1120Y713D01*
X1140Y713D02*
X1146Y713D01*
X1221Y713D02*
X1227Y713D01*
X1271Y713D02*
X1277Y713D01*
X1530Y713D02*
X1537Y713D01*
X0Y712D02*
X7Y712D01*
X339Y712D02*
X345Y712D01*
X389Y712D02*
X396Y712D01*
X447Y712D02*
X453Y712D01*
X460Y712D02*
X467Y712D01*
X737Y712D02*
X743Y712D01*
X764Y712D02*
X770Y712D01*
X794Y712D02*
X800Y712D01*
X1114Y712D02*
X1120Y712D01*
X1140Y712D02*
X1147Y712D01*
X1221Y712D02*
X1227Y712D01*
X1271Y712D02*
X1277Y712D01*
X1530Y712D02*
X1537Y712D01*
X0Y711D02*
X7Y711D01*
X339Y711D02*
X345Y711D01*
X389Y711D02*
X396Y711D01*
X447Y711D02*
X453Y711D01*
X461Y711D02*
X467Y711D01*
X737Y711D02*
X743Y711D01*
X765Y711D02*
X771Y711D01*
X794Y711D02*
X800Y711D01*
X1114Y711D02*
X1120Y711D01*
X1141Y711D02*
X1147Y711D01*
X1221Y711D02*
X1227Y711D01*
X1271Y711D02*
X1277Y711D01*
X1530Y711D02*
X1537Y711D01*
X0Y710D02*
X7Y710D01*
X339Y710D02*
X345Y710D01*
X389Y710D02*
X396Y710D01*
X447Y710D02*
X453Y710D01*
X461Y710D02*
X468Y710D01*
X737Y710D02*
X743Y710D01*
X765Y710D02*
X771Y710D01*
X790Y710D02*
X814Y710D01*
X840Y710D02*
X840Y710D01*
X856Y710D02*
X861Y710D01*
X1114Y710D02*
X1120Y710D01*
X1141Y710D02*
X1147Y710D01*
X1221Y710D02*
X1227Y710D01*
X1271Y710D02*
X1277Y710D01*
X1530Y710D02*
X1537Y710D01*
X0Y709D02*
X7Y709D01*
X339Y709D02*
X345Y709D01*
X389Y709D02*
X396Y709D01*
X447Y709D02*
X453Y709D01*
X462Y709D02*
X468Y709D01*
X737Y709D02*
X743Y709D01*
X765Y709D02*
X771Y709D01*
X788Y709D02*
X816Y709D01*
X838Y709D02*
X842Y709D01*
X852Y709D02*
X865Y709D01*
X1114Y709D02*
X1120Y709D01*
X1141Y709D02*
X1147Y709D01*
X1221Y709D02*
X1227Y709D01*
X1271Y709D02*
X1277Y709D01*
X1530Y709D02*
X1537Y709D01*
X0Y708D02*
X7Y708D01*
X339Y708D02*
X345Y708D01*
X389Y708D02*
X396Y708D01*
X447Y708D02*
X453Y708D01*
X462Y708D02*
X469Y708D01*
X737Y708D02*
X743Y708D01*
X765Y708D02*
X771Y708D01*
X788Y708D02*
X817Y708D01*
X838Y708D02*
X843Y708D01*
X850Y708D02*
X866Y708D01*
X1114Y708D02*
X1120Y708D01*
X1141Y708D02*
X1147Y708D01*
X1175Y708D02*
X1186Y708D01*
X1218Y708D02*
X1240Y708D01*
X1268Y708D02*
X1291Y708D01*
X1530Y708D02*
X1537Y708D01*
X0Y707D02*
X7Y707D01*
X339Y707D02*
X345Y707D01*
X389Y707D02*
X396Y707D01*
X447Y707D02*
X453Y707D01*
X463Y707D02*
X469Y707D01*
X737Y707D02*
X743Y707D01*
X764Y707D02*
X770Y707D01*
X787Y707D02*
X817Y707D01*
X837Y707D02*
X843Y707D01*
X849Y707D02*
X867Y707D01*
X1114Y707D02*
X1120Y707D01*
X1141Y707D02*
X1147Y707D01*
X1172Y707D02*
X1191Y707D01*
X1215Y707D02*
X1243Y707D01*
X1265Y707D02*
X1293Y707D01*
X1530Y707D02*
X1537Y707D01*
X0Y706D02*
X7Y706D01*
X339Y706D02*
X345Y706D01*
X389Y706D02*
X396Y706D01*
X447Y706D02*
X453Y706D01*
X463Y706D02*
X470Y706D01*
X737Y706D02*
X743Y706D01*
X764Y706D02*
X770Y706D01*
X787Y706D02*
X817Y706D01*
X837Y706D02*
X843Y706D01*
X847Y706D02*
X868Y706D01*
X1114Y706D02*
X1120Y706D01*
X1141Y706D02*
X1147Y706D01*
X1171Y706D02*
X1193Y706D01*
X1214Y706D02*
X1244Y706D01*
X1265Y706D02*
X1294Y706D01*
X1530Y706D02*
X1537Y706D01*
X0Y705D02*
X7Y705D01*
X339Y705D02*
X345Y705D01*
X389Y705D02*
X396Y705D01*
X447Y705D02*
X453Y705D01*
X464Y705D02*
X470Y705D01*
X737Y705D02*
X743Y705D01*
X764Y705D02*
X770Y705D01*
X788Y705D02*
X817Y705D01*
X837Y705D02*
X843Y705D01*
X846Y705D02*
X869Y705D01*
X1114Y705D02*
X1120Y705D01*
X1141Y705D02*
X1147Y705D01*
X1171Y705D02*
X1194Y705D01*
X1214Y705D02*
X1244Y705D01*
X1264Y705D02*
X1294Y705D01*
X1530Y705D02*
X1537Y705D01*
X0Y704D02*
X7Y704D01*
X339Y704D02*
X345Y704D01*
X389Y704D02*
X396Y704D01*
X447Y704D02*
X453Y704D01*
X464Y704D02*
X471Y704D01*
X737Y704D02*
X743Y704D01*
X763Y704D02*
X770Y704D01*
X788Y704D02*
X816Y704D01*
X837Y704D02*
X870Y704D01*
X1114Y704D02*
X1120Y704D01*
X1141Y704D02*
X1147Y704D01*
X1171Y704D02*
X1195Y704D01*
X1214Y704D02*
X1244Y704D01*
X1264Y704D02*
X1294Y704D01*
X1530Y704D02*
X1537Y704D01*
X0Y703D02*
X7Y703D01*
X339Y703D02*
X345Y703D01*
X389Y703D02*
X396Y703D01*
X447Y703D02*
X453Y703D01*
X465Y703D02*
X471Y703D01*
X737Y703D02*
X743Y703D01*
X762Y703D02*
X770Y703D01*
X794Y703D02*
X800Y703D01*
X837Y703D02*
X855Y703D01*
X862Y703D02*
X870Y703D01*
X1114Y703D02*
X1120Y703D01*
X1140Y703D02*
X1147Y703D01*
X1171Y703D02*
X1195Y703D01*
X1214Y703D02*
X1244Y703D01*
X1265Y703D02*
X1294Y703D01*
X1530Y703D02*
X1537Y703D01*
X0Y702D02*
X7Y702D01*
X339Y702D02*
X345Y702D01*
X389Y702D02*
X396Y702D01*
X447Y702D02*
X453Y702D01*
X465Y702D02*
X472Y702D01*
X737Y702D02*
X743Y702D01*
X761Y702D02*
X769Y702D01*
X794Y702D02*
X800Y702D01*
X837Y702D02*
X853Y702D01*
X863Y702D02*
X870Y702D01*
X1114Y702D02*
X1120Y702D01*
X1140Y702D02*
X1147Y702D01*
X1172Y702D02*
X1196Y702D01*
X1215Y702D02*
X1243Y702D01*
X1265Y702D02*
X1293Y702D01*
X1530Y702D02*
X1537Y702D01*
X0Y701D02*
X7Y701D01*
X339Y701D02*
X345Y701D01*
X389Y701D02*
X396Y701D01*
X447Y701D02*
X453Y701D01*
X466Y701D02*
X472Y701D01*
X737Y701D02*
X768Y701D01*
X794Y701D02*
X800Y701D01*
X837Y701D02*
X851Y701D01*
X864Y701D02*
X870Y701D01*
X1114Y701D02*
X1120Y701D01*
X1139Y701D02*
X1146Y701D01*
X1174Y701D02*
X1196Y701D01*
X1218Y701D02*
X1241Y701D01*
X1268Y701D02*
X1291Y701D01*
X1530Y701D02*
X1537Y701D01*
X0Y700D02*
X7Y700D01*
X339Y700D02*
X345Y700D01*
X389Y700D02*
X396Y700D01*
X447Y700D02*
X453Y700D01*
X466Y700D02*
X473Y700D01*
X737Y700D02*
X768Y700D01*
X794Y700D02*
X800Y700D01*
X837Y700D02*
X850Y700D01*
X864Y700D02*
X870Y700D01*
X1114Y700D02*
X1120Y700D01*
X1137Y700D02*
X1146Y700D01*
X1189Y700D02*
X1197Y700D01*
X1221Y700D02*
X1227Y700D01*
X1271Y700D02*
X1277Y700D01*
X1530Y700D02*
X1537Y700D01*
X0Y699D02*
X7Y699D01*
X339Y699D02*
X345Y699D01*
X389Y699D02*
X407Y699D01*
X447Y699D02*
X453Y699D01*
X467Y699D02*
X473Y699D01*
X737Y699D02*
X767Y699D01*
X794Y699D02*
X800Y699D01*
X837Y699D02*
X848Y699D01*
X864Y699D02*
X870Y699D01*
X1114Y699D02*
X1145Y699D01*
X1190Y699D02*
X1197Y699D01*
X1221Y699D02*
X1227Y699D01*
X1271Y699D02*
X1277Y699D01*
X1530Y699D02*
X1537Y699D01*
X0Y698D02*
X7Y698D01*
X339Y698D02*
X345Y698D01*
X389Y698D02*
X408Y698D01*
X447Y698D02*
X453Y698D01*
X467Y698D02*
X473Y698D01*
X737Y698D02*
X766Y698D01*
X794Y698D02*
X800Y698D01*
X837Y698D02*
X847Y698D01*
X864Y698D02*
X870Y698D01*
X1114Y698D02*
X1145Y698D01*
X1190Y698D02*
X1197Y698D01*
X1221Y698D02*
X1227Y698D01*
X1271Y698D02*
X1277Y698D01*
X1530Y698D02*
X1537Y698D01*
X0Y697D02*
X7Y697D01*
X339Y697D02*
X345Y697D01*
X389Y697D02*
X409Y697D01*
X447Y697D02*
X453Y697D01*
X467Y697D02*
X473Y697D01*
X737Y697D02*
X766Y697D01*
X794Y697D02*
X800Y697D01*
X837Y697D02*
X845Y697D01*
X864Y697D02*
X870Y697D01*
X1114Y697D02*
X1144Y697D01*
X1191Y697D02*
X1197Y697D01*
X1221Y697D02*
X1227Y697D01*
X1271Y697D02*
X1277Y697D01*
X1530Y697D02*
X1537Y697D01*
X0Y696D02*
X7Y696D01*
X339Y696D02*
X345Y696D01*
X389Y696D02*
X409Y696D01*
X447Y696D02*
X453Y696D01*
X467Y696D02*
X473Y696D01*
X737Y696D02*
X767Y696D01*
X794Y696D02*
X800Y696D01*
X837Y696D02*
X844Y696D01*
X864Y696D02*
X870Y696D01*
X1114Y696D02*
X1143Y696D01*
X1191Y696D02*
X1197Y696D01*
X1221Y696D02*
X1227Y696D01*
X1271Y696D02*
X1277Y696D01*
X1530Y696D02*
X1537Y696D01*
X0Y695D02*
X7Y695D01*
X339Y695D02*
X345Y695D01*
X389Y695D02*
X409Y695D01*
X447Y695D02*
X453Y695D01*
X467Y695D02*
X473Y695D01*
X737Y695D02*
X768Y695D01*
X794Y695D02*
X800Y695D01*
X837Y695D02*
X843Y695D01*
X864Y695D02*
X870Y695D01*
X1114Y695D02*
X1143Y695D01*
X1191Y695D02*
X1197Y695D01*
X1221Y695D02*
X1227Y695D01*
X1271Y695D02*
X1277Y695D01*
X1530Y695D02*
X1537Y695D01*
X0Y694D02*
X7Y694D01*
X339Y694D02*
X345Y694D01*
X389Y694D02*
X409Y694D01*
X447Y694D02*
X453Y694D01*
X467Y694D02*
X473Y694D01*
X737Y694D02*
X743Y694D01*
X759Y694D02*
X769Y694D01*
X794Y694D02*
X800Y694D01*
X837Y694D02*
X843Y694D01*
X864Y694D02*
X870Y694D01*
X1114Y694D02*
X1144Y694D01*
X1191Y694D02*
X1197Y694D01*
X1221Y694D02*
X1227Y694D01*
X1271Y694D02*
X1277Y694D01*
X1530Y694D02*
X1537Y694D01*
X0Y693D02*
X7Y693D01*
X339Y693D02*
X345Y693D01*
X389Y693D02*
X408Y693D01*
X447Y693D02*
X453Y693D01*
X467Y693D02*
X473Y693D01*
X737Y693D02*
X743Y693D01*
X762Y693D02*
X769Y693D01*
X794Y693D02*
X800Y693D01*
X837Y693D02*
X843Y693D01*
X864Y693D02*
X870Y693D01*
X1114Y693D02*
X1145Y693D01*
X1172Y693D02*
X1197Y693D01*
X1221Y693D02*
X1227Y693D01*
X1271Y693D02*
X1277Y693D01*
X1530Y693D02*
X1537Y693D01*
X0Y692D02*
X7Y692D01*
X339Y692D02*
X345Y692D01*
X389Y692D02*
X396Y692D01*
X447Y692D02*
X453Y692D01*
X466Y692D02*
X473Y692D01*
X737Y692D02*
X743Y692D01*
X763Y692D02*
X770Y692D01*
X794Y692D02*
X800Y692D01*
X837Y692D02*
X843Y692D01*
X864Y692D02*
X870Y692D01*
X1114Y692D02*
X1120Y692D01*
X1136Y692D02*
X1145Y692D01*
X1169Y692D02*
X1197Y692D01*
X1221Y692D02*
X1227Y692D01*
X1271Y692D02*
X1277Y692D01*
X1530Y692D02*
X1537Y692D01*
X0Y691D02*
X7Y691D01*
X339Y691D02*
X345Y691D01*
X389Y691D02*
X396Y691D01*
X447Y691D02*
X453Y691D01*
X466Y691D02*
X472Y691D01*
X737Y691D02*
X743Y691D01*
X763Y691D02*
X770Y691D01*
X794Y691D02*
X800Y691D01*
X837Y691D02*
X843Y691D01*
X864Y691D02*
X870Y691D01*
X1114Y691D02*
X1120Y691D01*
X1138Y691D02*
X1146Y691D01*
X1168Y691D02*
X1197Y691D01*
X1221Y691D02*
X1227Y691D01*
X1271Y691D02*
X1277Y691D01*
X1530Y691D02*
X1537Y691D01*
X0Y690D02*
X7Y690D01*
X339Y690D02*
X345Y690D01*
X389Y690D02*
X396Y690D01*
X447Y690D02*
X453Y690D01*
X465Y690D02*
X472Y690D01*
X737Y690D02*
X743Y690D01*
X764Y690D02*
X770Y690D01*
X794Y690D02*
X800Y690D01*
X837Y690D02*
X843Y690D01*
X864Y690D02*
X870Y690D01*
X1114Y690D02*
X1120Y690D01*
X1139Y690D02*
X1146Y690D01*
X1167Y690D02*
X1197Y690D01*
X1221Y690D02*
X1227Y690D01*
X1271Y690D02*
X1277Y690D01*
X1530Y690D02*
X1537Y690D01*
X0Y689D02*
X7Y689D01*
X339Y689D02*
X345Y689D01*
X389Y689D02*
X396Y689D01*
X447Y689D02*
X453Y689D01*
X465Y689D02*
X472Y689D01*
X737Y689D02*
X743Y689D01*
X764Y689D02*
X770Y689D01*
X794Y689D02*
X800Y689D01*
X837Y689D02*
X843Y689D01*
X864Y689D02*
X870Y689D01*
X1114Y689D02*
X1120Y689D01*
X1140Y689D02*
X1147Y689D01*
X1166Y689D02*
X1197Y689D01*
X1221Y689D02*
X1227Y689D01*
X1271Y689D02*
X1277Y689D01*
X1530Y689D02*
X1537Y689D01*
X0Y688D02*
X7Y688D01*
X339Y688D02*
X345Y688D01*
X389Y688D02*
X396Y688D01*
X447Y688D02*
X453Y688D01*
X464Y688D02*
X471Y688D01*
X737Y688D02*
X743Y688D01*
X765Y688D02*
X771Y688D01*
X794Y688D02*
X800Y688D01*
X837Y688D02*
X843Y688D01*
X864Y688D02*
X870Y688D01*
X1114Y688D02*
X1120Y688D01*
X1141Y688D02*
X1147Y688D01*
X1165Y688D02*
X1197Y688D01*
X1221Y688D02*
X1227Y688D01*
X1271Y688D02*
X1277Y688D01*
X1530Y688D02*
X1537Y688D01*
X0Y687D02*
X7Y687D01*
X339Y687D02*
X345Y687D01*
X389Y687D02*
X396Y687D01*
X447Y687D02*
X453Y687D01*
X464Y687D02*
X471Y687D01*
X737Y687D02*
X743Y687D01*
X765Y687D02*
X771Y687D01*
X794Y687D02*
X800Y687D01*
X837Y687D02*
X843Y687D01*
X864Y687D02*
X870Y687D01*
X1114Y687D02*
X1120Y687D01*
X1141Y687D02*
X1147Y687D01*
X1165Y687D02*
X1197Y687D01*
X1221Y687D02*
X1227Y687D01*
X1271Y687D02*
X1277Y687D01*
X1530Y687D02*
X1537Y687D01*
X0Y686D02*
X7Y686D01*
X339Y686D02*
X345Y686D01*
X389Y686D02*
X396Y686D01*
X447Y686D02*
X453Y686D01*
X463Y686D02*
X470Y686D01*
X737Y686D02*
X743Y686D01*
X765Y686D02*
X771Y686D01*
X794Y686D02*
X800Y686D01*
X837Y686D02*
X843Y686D01*
X864Y686D02*
X870Y686D01*
X1114Y686D02*
X1120Y686D01*
X1141Y686D02*
X1147Y686D01*
X1164Y686D02*
X1172Y686D01*
X1189Y686D02*
X1197Y686D01*
X1221Y686D02*
X1227Y686D01*
X1271Y686D02*
X1277Y686D01*
X1530Y686D02*
X1537Y686D01*
X0Y685D02*
X7Y685D01*
X339Y685D02*
X345Y685D01*
X389Y685D02*
X396Y685D01*
X447Y685D02*
X453Y685D01*
X463Y685D02*
X470Y685D01*
X737Y685D02*
X743Y685D01*
X765Y685D02*
X771Y685D01*
X794Y685D02*
X800Y685D01*
X837Y685D02*
X843Y685D01*
X864Y685D02*
X870Y685D01*
X1114Y685D02*
X1120Y685D01*
X1141Y685D02*
X1147Y685D01*
X1164Y685D02*
X1171Y685D01*
X1190Y685D02*
X1197Y685D01*
X1221Y685D02*
X1227Y685D01*
X1271Y685D02*
X1277Y685D01*
X1530Y685D02*
X1537Y685D01*
X0Y684D02*
X7Y684D01*
X339Y684D02*
X345Y684D01*
X389Y684D02*
X396Y684D01*
X447Y684D02*
X453Y684D01*
X462Y684D02*
X469Y684D01*
X737Y684D02*
X743Y684D01*
X765Y684D02*
X771Y684D01*
X794Y684D02*
X800Y684D01*
X837Y684D02*
X843Y684D01*
X864Y684D02*
X870Y684D01*
X1114Y684D02*
X1120Y684D01*
X1141Y684D02*
X1147Y684D01*
X1164Y684D02*
X1170Y684D01*
X1191Y684D02*
X1197Y684D01*
X1221Y684D02*
X1227Y684D01*
X1271Y684D02*
X1277Y684D01*
X1530Y684D02*
X1537Y684D01*
X0Y683D02*
X7Y683D01*
X339Y683D02*
X345Y683D01*
X389Y683D02*
X396Y683D01*
X447Y683D02*
X453Y683D01*
X462Y683D02*
X469Y683D01*
X737Y683D02*
X743Y683D01*
X764Y683D02*
X770Y683D01*
X794Y683D02*
X800Y683D01*
X816Y683D02*
X819Y683D01*
X837Y683D02*
X843Y683D01*
X864Y683D02*
X870Y683D01*
X1114Y683D02*
X1120Y683D01*
X1141Y683D02*
X1147Y683D01*
X1164Y683D02*
X1170Y683D01*
X1191Y683D02*
X1197Y683D01*
X1221Y683D02*
X1227Y683D01*
X1271Y683D02*
X1277Y683D01*
X1530Y683D02*
X1537Y683D01*
X0Y682D02*
X7Y682D01*
X339Y682D02*
X345Y682D01*
X389Y682D02*
X396Y682D01*
X447Y682D02*
X453Y682D01*
X461Y682D02*
X468Y682D01*
X737Y682D02*
X743Y682D01*
X764Y682D02*
X770Y682D01*
X794Y682D02*
X800Y682D01*
X816Y682D02*
X820Y682D01*
X837Y682D02*
X843Y682D01*
X864Y682D02*
X870Y682D01*
X1114Y682D02*
X1120Y682D01*
X1141Y682D02*
X1147Y682D01*
X1164Y682D02*
X1170Y682D01*
X1191Y682D02*
X1197Y682D01*
X1221Y682D02*
X1227Y682D01*
X1271Y682D02*
X1277Y682D01*
X1530Y682D02*
X1537Y682D01*
X0Y681D02*
X7Y681D01*
X339Y681D02*
X345Y681D01*
X389Y681D02*
X396Y681D01*
X447Y681D02*
X453Y681D01*
X461Y681D02*
X468Y681D01*
X737Y681D02*
X743Y681D01*
X763Y681D02*
X770Y681D01*
X794Y681D02*
X800Y681D01*
X815Y681D02*
X821Y681D01*
X837Y681D02*
X843Y681D01*
X864Y681D02*
X870Y681D01*
X1114Y681D02*
X1120Y681D01*
X1141Y681D02*
X1147Y681D01*
X1164Y681D02*
X1170Y681D01*
X1191Y681D02*
X1197Y681D01*
X1221Y681D02*
X1227Y681D01*
X1243Y681D02*
X1246Y681D01*
X1271Y681D02*
X1277Y681D01*
X1294Y681D02*
X1296Y681D01*
X1530Y681D02*
X1537Y681D01*
X0Y680D02*
X7Y680D01*
X339Y680D02*
X345Y680D01*
X389Y680D02*
X396Y680D01*
X447Y680D02*
X453Y680D01*
X460Y680D02*
X467Y680D01*
X737Y680D02*
X743Y680D01*
X763Y680D02*
X770Y680D01*
X794Y680D02*
X800Y680D01*
X815Y680D02*
X821Y680D01*
X837Y680D02*
X843Y680D01*
X864Y680D02*
X870Y680D01*
X1114Y680D02*
X1120Y680D01*
X1141Y680D02*
X1147Y680D01*
X1164Y680D02*
X1170Y680D01*
X1191Y680D02*
X1197Y680D01*
X1221Y680D02*
X1227Y680D01*
X1242Y680D02*
X1247Y680D01*
X1271Y680D02*
X1277Y680D01*
X1293Y680D02*
X1297Y680D01*
X1530Y680D02*
X1537Y680D01*
X0Y679D02*
X7Y679D01*
X339Y679D02*
X345Y679D01*
X389Y679D02*
X396Y679D01*
X447Y679D02*
X453Y679D01*
X460Y679D02*
X467Y679D01*
X737Y679D02*
X743Y679D01*
X762Y679D02*
X769Y679D01*
X794Y679D02*
X801Y679D01*
X814Y679D02*
X821Y679D01*
X837Y679D02*
X843Y679D01*
X864Y679D02*
X870Y679D01*
X1114Y679D02*
X1120Y679D01*
X1140Y679D02*
X1147Y679D01*
X1164Y679D02*
X1170Y679D01*
X1189Y679D02*
X1197Y679D01*
X1221Y679D02*
X1227Y679D01*
X1242Y679D02*
X1247Y679D01*
X1271Y679D02*
X1277Y679D01*
X1292Y679D02*
X1298Y679D01*
X1530Y679D02*
X1537Y679D01*
X0Y678D02*
X7Y678D01*
X339Y678D02*
X345Y678D01*
X389Y678D02*
X396Y678D01*
X447Y678D02*
X453Y678D01*
X459Y678D02*
X466Y678D01*
X737Y678D02*
X743Y678D01*
X760Y678D02*
X769Y678D01*
X795Y678D02*
X802Y678D01*
X813Y678D02*
X820Y678D01*
X837Y678D02*
X843Y678D01*
X864Y678D02*
X870Y678D01*
X1114Y678D02*
X1120Y678D01*
X1139Y678D02*
X1146Y678D01*
X1164Y678D02*
X1170Y678D01*
X1188Y678D02*
X1197Y678D01*
X1221Y678D02*
X1227Y678D01*
X1241Y678D02*
X1248Y678D01*
X1271Y678D02*
X1277Y678D01*
X1292Y678D02*
X1298Y678D01*
X1530Y678D02*
X1537Y678D01*
X0Y677D02*
X7Y677D01*
X339Y677D02*
X345Y677D01*
X389Y677D02*
X396Y677D01*
X447Y677D02*
X453Y677D01*
X459Y677D02*
X466Y677D01*
X737Y677D02*
X768Y677D01*
X795Y677D02*
X820Y677D01*
X837Y677D02*
X843Y677D01*
X864Y677D02*
X870Y677D01*
X1114Y677D02*
X1120Y677D01*
X1138Y677D02*
X1146Y677D01*
X1164Y677D02*
X1171Y677D01*
X1186Y677D02*
X1197Y677D01*
X1221Y677D02*
X1228Y677D01*
X1241Y677D02*
X1248Y677D01*
X1271Y677D02*
X1278Y677D01*
X1291Y677D02*
X1298Y677D01*
X1530Y677D02*
X1537Y677D01*
X0Y676D02*
X7Y676D01*
X339Y676D02*
X345Y676D01*
X389Y676D02*
X396Y676D01*
X447Y676D02*
X453Y676D01*
X458Y676D02*
X465Y676D01*
X737Y676D02*
X767Y676D01*
X795Y676D02*
X819Y676D01*
X837Y676D02*
X843Y676D01*
X864Y676D02*
X870Y676D01*
X1114Y676D02*
X1120Y676D01*
X1137Y676D02*
X1145Y676D01*
X1164Y676D02*
X1172Y676D01*
X1184Y676D02*
X1197Y676D01*
X1221Y676D02*
X1229Y676D01*
X1240Y676D02*
X1247Y676D01*
X1272Y676D02*
X1279Y676D01*
X1290Y676D02*
X1297Y676D01*
X1530Y676D02*
X1537Y676D01*
X0Y675D02*
X7Y675D01*
X339Y675D02*
X371Y675D01*
X389Y675D02*
X421Y675D01*
X441Y675D02*
X465Y675D01*
X737Y675D02*
X767Y675D01*
X796Y675D02*
X819Y675D01*
X837Y675D02*
X843Y675D01*
X864Y675D02*
X870Y675D01*
X1114Y675D02*
X1145Y675D01*
X1165Y675D02*
X1197Y675D01*
X1222Y675D02*
X1247Y675D01*
X1272Y675D02*
X1297Y675D01*
X1530Y675D02*
X1537Y675D01*
X0Y674D02*
X7Y674D01*
X339Y674D02*
X372Y674D01*
X389Y674D02*
X422Y674D01*
X440Y674D02*
X464Y674D01*
X737Y674D02*
X765Y674D01*
X797Y674D02*
X818Y674D01*
X837Y674D02*
X843Y674D01*
X865Y674D02*
X870Y674D01*
X1114Y674D02*
X1144Y674D01*
X1165Y674D02*
X1197Y674D01*
X1222Y674D02*
X1246Y674D01*
X1272Y674D02*
X1297Y674D01*
X1530Y674D02*
X1537Y674D01*
X0Y673D02*
X7Y673D01*
X339Y673D02*
X373Y673D01*
X389Y673D02*
X423Y673D01*
X440Y673D02*
X464Y673D01*
X737Y673D02*
X764Y673D01*
X798Y673D02*
X817Y673D01*
X838Y673D02*
X843Y673D01*
X865Y673D02*
X870Y673D01*
X1114Y673D02*
X1143Y673D01*
X1166Y673D02*
X1197Y673D01*
X1223Y673D02*
X1246Y673D01*
X1273Y673D02*
X1296Y673D01*
X1530Y673D02*
X1537Y673D01*
X0Y672D02*
X7Y672D01*
X339Y672D02*
X373Y672D01*
X389Y672D02*
X423Y672D01*
X440Y672D02*
X463Y672D01*
X737Y672D02*
X762Y672D01*
X799Y672D02*
X815Y672D01*
X838Y672D02*
X843Y672D01*
X865Y672D02*
X870Y672D01*
X1114Y672D02*
X1142Y672D01*
X1167Y672D02*
X1197Y672D01*
X1224Y672D02*
X1245Y672D01*
X1274Y672D02*
X1295Y672D01*
X1530Y672D02*
X1537Y672D01*
X0Y671D02*
X7Y671D01*
X339Y671D02*
X373Y671D01*
X389Y671D02*
X423Y671D01*
X440Y671D02*
X462Y671D01*
X737Y671D02*
X760Y671D01*
X802Y671D02*
X813Y671D01*
X840Y671D02*
X841Y671D01*
X867Y671D02*
X868Y671D01*
X1114Y671D02*
X1141Y671D01*
X1168Y671D02*
X1189Y671D01*
X1192Y671D02*
X1197Y671D01*
X1225Y671D02*
X1244Y671D01*
X1275Y671D02*
X1294Y671D01*
X1530Y671D02*
X1537Y671D01*
X0Y670D02*
X7Y670D01*
X339Y670D02*
X372Y670D01*
X389Y670D02*
X422Y670D01*
X440Y670D02*
X460Y670D01*
X1114Y670D02*
X1139Y670D01*
X1169Y670D02*
X1187Y670D01*
X1192Y670D02*
X1196Y670D01*
X1226Y670D02*
X1242Y670D01*
X1276Y670D02*
X1293Y670D01*
X1530Y670D02*
X1537Y670D01*
X0Y669D02*
X7Y669D01*
X339Y669D02*
X371Y669D01*
X390Y669D02*
X421Y669D01*
X442Y669D02*
X458Y669D01*
X1114Y669D02*
X1137Y669D01*
X1171Y669D02*
X1185Y669D01*
X1193Y669D02*
X1195Y669D01*
X1228Y669D02*
X1240Y669D01*
X1279Y669D02*
X1290Y669D01*
X1530Y669D02*
X1537Y669D01*
X0Y668D02*
X7Y668D01*
X1530Y668D02*
X1537Y668D01*
X0Y667D02*
X7Y667D01*
X1530Y667D02*
X1537Y667D01*
X0Y666D02*
X7Y666D01*
X1530Y666D02*
X1537Y666D01*
X0Y665D02*
X7Y665D01*
X1530Y665D02*
X1537Y665D01*
X0Y664D02*
X7Y664D01*
X1530Y664D02*
X1537Y664D01*
X0Y663D02*
X7Y663D01*
X1530Y663D02*
X1537Y663D01*
X0Y662D02*
X7Y662D01*
X1530Y662D02*
X1537Y662D01*
X0Y661D02*
X7Y661D01*
X1530Y661D02*
X1537Y661D01*
X0Y660D02*
X7Y660D01*
X1530Y660D02*
X1537Y660D01*
X0Y659D02*
X7Y659D01*
X1530Y659D02*
X1537Y659D01*
X0Y658D02*
X7Y658D01*
X1530Y658D02*
X1537Y658D01*
X0Y657D02*
X7Y657D01*
X1530Y657D02*
X1537Y657D01*
X0Y656D02*
X7Y656D01*
X1530Y656D02*
X1537Y656D01*
X0Y655D02*
X7Y655D01*
X1530Y655D02*
X1537Y655D01*
X0Y654D02*
X7Y654D01*
X1530Y654D02*
X1537Y654D01*
X0Y653D02*
X7Y653D01*
X1530Y653D02*
X1537Y653D01*
X0Y652D02*
X7Y652D01*
X1530Y652D02*
X1537Y652D01*
X0Y651D02*
X7Y651D01*
X1530Y651D02*
X1537Y651D01*
X0Y650D02*
X7Y650D01*
X1530Y650D02*
X1537Y650D01*
X0Y649D02*
X7Y649D01*
X1530Y649D02*
X1537Y649D01*
X0Y648D02*
X7Y648D01*
X1530Y648D02*
X1537Y648D01*
X0Y647D02*
X7Y647D01*
X1530Y647D02*
X1537Y647D01*
X0Y646D02*
X7Y646D01*
X1530Y646D02*
X1537Y646D01*
X0Y645D02*
X7Y645D01*
X1530Y645D02*
X1537Y645D01*
X0Y644D02*
X7Y644D01*
X1530Y644D02*
X1537Y644D01*
X0Y643D02*
X7Y643D01*
X1530Y643D02*
X1537Y643D01*
X0Y642D02*
X7Y642D01*
X1530Y642D02*
X1537Y642D01*
X0Y641D02*
X7Y641D01*
X1530Y641D02*
X1537Y641D01*
X0Y640D02*
X7Y640D01*
X1530Y640D02*
X1537Y640D01*
X0Y639D02*
X7Y639D01*
X1530Y639D02*
X1537Y639D01*
X0Y638D02*
X7Y638D01*
X1530Y638D02*
X1537Y638D01*
X0Y637D02*
X7Y637D01*
X1530Y637D02*
X1537Y637D01*
X0Y636D02*
X7Y636D01*
X1530Y636D02*
X1537Y636D01*
X0Y635D02*
X7Y635D01*
X1530Y635D02*
X1537Y635D01*
X0Y634D02*
X7Y634D01*
X1530Y634D02*
X1537Y634D01*
X0Y633D02*
X7Y633D01*
X1530Y633D02*
X1537Y633D01*
X0Y632D02*
X7Y632D01*
X1530Y632D02*
X1537Y632D01*
X0Y631D02*
X7Y631D01*
X1530Y631D02*
X1537Y631D01*
X0Y630D02*
X7Y630D01*
X1530Y630D02*
X1537Y630D01*
X0Y629D02*
X7Y629D01*
X1530Y629D02*
X1537Y629D01*
X0Y628D02*
X7Y628D01*
X1530Y628D02*
X1537Y628D01*
X0Y627D02*
X7Y627D01*
X1530Y627D02*
X1537Y627D01*
X0Y626D02*
X7Y626D01*
X1530Y626D02*
X1537Y626D01*
X0Y625D02*
X7Y625D01*
X1530Y625D02*
X1537Y625D01*
X0Y624D02*
X7Y624D01*
X1530Y624D02*
X1537Y624D01*
X0Y623D02*
X7Y623D01*
X1530Y623D02*
X1537Y623D01*
X0Y622D02*
X7Y622D01*
X1530Y622D02*
X1537Y622D01*
X0Y621D02*
X7Y621D01*
X1530Y621D02*
X1537Y621D01*
X0Y620D02*
X7Y620D01*
X1530Y620D02*
X1537Y620D01*
X0Y619D02*
X7Y619D01*
X1530Y619D02*
X1537Y619D01*
X0Y618D02*
X7Y618D01*
X1530Y618D02*
X1537Y618D01*
X0Y617D02*
X7Y617D01*
X1530Y617D02*
X1537Y617D01*
X0Y616D02*
X7Y616D01*
X1530Y616D02*
X1537Y616D01*
X0Y615D02*
X7Y615D01*
X1530Y615D02*
X1537Y615D01*
X0Y614D02*
X7Y614D01*
X1530Y614D02*
X1537Y614D01*
X0Y613D02*
X7Y613D01*
X1530Y613D02*
X1537Y613D01*
X0Y612D02*
X7Y612D01*
X1530Y612D02*
X1537Y612D01*
X0Y611D02*
X7Y611D01*
X1530Y611D02*
X1537Y611D01*
X0Y610D02*
X7Y610D01*
X1530Y610D02*
X1537Y610D01*
X0Y609D02*
X7Y609D01*
X1530Y609D02*
X1537Y609D01*
X0Y608D02*
X7Y608D01*
X1530Y608D02*
X1537Y608D01*
X0Y607D02*
X7Y607D01*
X1530Y607D02*
X1537Y607D01*
X0Y606D02*
X7Y606D01*
X1530Y606D02*
X1537Y606D01*
X0Y605D02*
X7Y605D01*
X1530Y605D02*
X1537Y605D01*
X0Y604D02*
X7Y604D01*
X1530Y604D02*
X1537Y604D01*
X0Y603D02*
X7Y603D01*
X1530Y603D02*
X1537Y603D01*
X0Y602D02*
X7Y602D01*
X1530Y602D02*
X1537Y602D01*
X0Y601D02*
X7Y601D01*
X1530Y601D02*
X1537Y601D01*
X0Y600D02*
X7Y600D01*
X1530Y600D02*
X1537Y600D01*
X0Y599D02*
X7Y599D01*
X1530Y599D02*
X1537Y599D01*
X0Y598D02*
X7Y598D01*
X1530Y598D02*
X1537Y598D01*
X0Y597D02*
X7Y597D01*
X1530Y597D02*
X1537Y597D01*
X0Y596D02*
X7Y596D01*
X1530Y596D02*
X1537Y596D01*
X0Y595D02*
X7Y595D01*
X1530Y595D02*
X1537Y595D01*
X0Y594D02*
X7Y594D01*
X1530Y594D02*
X1537Y594D01*
X0Y593D02*
X7Y593D01*
X1530Y593D02*
X1537Y593D01*
X0Y592D02*
X7Y592D01*
X1530Y592D02*
X1537Y592D01*
X0Y591D02*
X7Y591D01*
X1530Y591D02*
X1537Y591D01*
X0Y590D02*
X7Y590D01*
X1530Y590D02*
X1537Y590D01*
X0Y589D02*
X7Y589D01*
X1530Y589D02*
X1537Y589D01*
X0Y588D02*
X7Y588D01*
X1530Y588D02*
X1537Y588D01*
X0Y587D02*
X7Y587D01*
X1530Y587D02*
X1537Y587D01*
X0Y586D02*
X7Y586D01*
X1530Y586D02*
X1537Y586D01*
X0Y585D02*
X7Y585D01*
X1530Y585D02*
X1537Y585D01*
X0Y584D02*
X7Y584D01*
X1530Y584D02*
X1537Y584D01*
X0Y583D02*
X7Y583D01*
X1530Y583D02*
X1537Y583D01*
X0Y582D02*
X7Y582D01*
X1530Y582D02*
X1537Y582D01*
X0Y581D02*
X7Y581D01*
X1530Y581D02*
X1537Y581D01*
X0Y580D02*
X7Y580D01*
X1530Y580D02*
X1537Y580D01*
X0Y579D02*
X7Y579D01*
X1530Y579D02*
X1537Y579D01*
X0Y578D02*
X7Y578D01*
X1530Y578D02*
X1537Y578D01*
X0Y577D02*
X7Y577D01*
X1530Y577D02*
X1537Y577D01*
X0Y576D02*
X7Y576D01*
X1530Y576D02*
X1537Y576D01*
X0Y575D02*
X7Y575D01*
X1530Y575D02*
X1537Y575D01*
X0Y574D02*
X7Y574D01*
X1530Y574D02*
X1537Y574D01*
X0Y573D02*
X7Y573D01*
X1530Y573D02*
X1537Y573D01*
X0Y572D02*
X7Y572D01*
X1530Y572D02*
X1537Y572D01*
X0Y571D02*
X7Y571D01*
X1530Y571D02*
X1537Y571D01*
X0Y570D02*
X7Y570D01*
X1530Y570D02*
X1537Y570D01*
X0Y569D02*
X7Y569D01*
X1530Y569D02*
X1537Y569D01*
X0Y568D02*
X7Y568D01*
X1530Y568D02*
X1537Y568D01*
X0Y567D02*
X7Y567D01*
X1530Y567D02*
X1537Y567D01*
X0Y566D02*
X7Y566D01*
X1530Y566D02*
X1537Y566D01*
X0Y565D02*
X7Y565D01*
X1530Y565D02*
X1537Y565D01*
X0Y564D02*
X7Y564D01*
X1530Y564D02*
X1537Y564D01*
X0Y563D02*
X7Y563D01*
X1530Y563D02*
X1537Y563D01*
X0Y562D02*
X7Y562D01*
X1530Y562D02*
X1537Y562D01*
X0Y561D02*
X7Y561D01*
X1530Y561D02*
X1537Y561D01*
X0Y560D02*
X7Y560D01*
X1530Y560D02*
X1537Y560D01*
X0Y559D02*
X7Y559D01*
X1530Y559D02*
X1537Y559D01*
X0Y558D02*
X7Y558D01*
X1530Y558D02*
X1537Y558D01*
X0Y557D02*
X7Y557D01*
X1530Y557D02*
X1537Y557D01*
X0Y556D02*
X7Y556D01*
X1530Y556D02*
X1537Y556D01*
X0Y555D02*
X7Y555D01*
X1530Y555D02*
X1537Y555D01*
X0Y554D02*
X7Y554D01*
X1530Y554D02*
X1537Y554D01*
X0Y553D02*
X7Y553D01*
X1530Y553D02*
X1537Y553D01*
X0Y552D02*
X7Y552D01*
X1530Y552D02*
X1537Y552D01*
X0Y551D02*
X7Y551D01*
X1530Y551D02*
X1537Y551D01*
X0Y550D02*
X7Y550D01*
X1530Y550D02*
X1537Y550D01*
X0Y549D02*
X7Y549D01*
X1530Y549D02*
X1537Y549D01*
X0Y548D02*
X7Y548D01*
X1530Y548D02*
X1537Y548D01*
X0Y547D02*
X7Y547D01*
X1530Y547D02*
X1537Y547D01*
X0Y546D02*
X7Y546D01*
X1530Y546D02*
X1537Y546D01*
X0Y545D02*
X7Y545D01*
X1530Y545D02*
X1537Y545D01*
X0Y544D02*
X7Y544D01*
X1530Y544D02*
X1537Y544D01*
X0Y543D02*
X7Y543D01*
X1530Y543D02*
X1537Y543D01*
X0Y542D02*
X7Y542D01*
X1530Y542D02*
X1537Y542D01*
X0Y541D02*
X7Y541D01*
X1530Y541D02*
X1537Y541D01*
X0Y540D02*
X7Y540D01*
X1530Y540D02*
X1537Y540D01*
X0Y539D02*
X7Y539D01*
X1530Y539D02*
X1537Y539D01*
X0Y538D02*
X7Y538D01*
X1530Y538D02*
X1537Y538D01*
X0Y537D02*
X7Y537D01*
X1530Y537D02*
X1537Y537D01*
X0Y536D02*
X7Y536D01*
X1530Y536D02*
X1537Y536D01*
X0Y535D02*
X7Y535D01*
X1530Y535D02*
X1537Y535D01*
X0Y534D02*
X7Y534D01*
X1530Y534D02*
X1537Y534D01*
X0Y533D02*
X7Y533D01*
X1530Y533D02*
X1537Y533D01*
X0Y532D02*
X7Y532D01*
X1530Y532D02*
X1537Y532D01*
X0Y531D02*
X7Y531D01*
X1530Y531D02*
X1537Y531D01*
X0Y530D02*
X7Y530D01*
X1530Y530D02*
X1537Y530D01*
X0Y529D02*
X7Y529D01*
X1530Y529D02*
X1537Y529D01*
X0Y528D02*
X7Y528D01*
X1530Y528D02*
X1537Y528D01*
X0Y527D02*
X7Y527D01*
X1530Y527D02*
X1537Y527D01*
X0Y526D02*
X7Y526D01*
X1530Y526D02*
X1537Y526D01*
X0Y525D02*
X7Y525D01*
X1530Y525D02*
X1537Y525D01*
X0Y524D02*
X7Y524D01*
X1530Y524D02*
X1537Y524D01*
X0Y523D02*
X7Y523D01*
X1530Y523D02*
X1537Y523D01*
X0Y522D02*
X7Y522D01*
X1530Y522D02*
X1537Y522D01*
X0Y521D02*
X7Y521D01*
X1530Y521D02*
X1537Y521D01*
X0Y520D02*
X7Y520D01*
X1530Y520D02*
X1537Y520D01*
X0Y519D02*
X7Y519D01*
X1530Y519D02*
X1537Y519D01*
X0Y518D02*
X7Y518D01*
X1530Y518D02*
X1537Y518D01*
X0Y517D02*
X7Y517D01*
X1530Y517D02*
X1537Y517D01*
X0Y516D02*
X7Y516D01*
X1530Y516D02*
X1537Y516D01*
X0Y515D02*
X7Y515D01*
X1530Y515D02*
X1537Y515D01*
X0Y514D02*
X7Y514D01*
X1530Y514D02*
X1537Y514D01*
X0Y513D02*
X7Y513D01*
X1530Y513D02*
X1537Y513D01*
X0Y512D02*
X7Y512D01*
X1530Y512D02*
X1537Y512D01*
X0Y511D02*
X7Y511D01*
X1530Y511D02*
X1537Y511D01*
X0Y510D02*
X7Y510D01*
X1530Y510D02*
X1537Y510D01*
X0Y509D02*
X7Y509D01*
X1530Y509D02*
X1537Y509D01*
X0Y508D02*
X7Y508D01*
X1530Y508D02*
X1537Y508D01*
X0Y507D02*
X7Y507D01*
X1530Y507D02*
X1537Y507D01*
X0Y506D02*
X7Y506D01*
X1530Y506D02*
X1537Y506D01*
X0Y505D02*
X7Y505D01*
X1530Y505D02*
X1537Y505D01*
X0Y504D02*
X7Y504D01*
X1530Y504D02*
X1537Y504D01*
X0Y503D02*
X7Y503D01*
X1530Y503D02*
X1537Y503D01*
X0Y502D02*
X7Y502D01*
X1530Y502D02*
X1537Y502D01*
X0Y501D02*
X7Y501D01*
X1530Y501D02*
X1537Y501D01*
X0Y500D02*
X7Y500D01*
X1530Y500D02*
X1537Y500D01*
X0Y499D02*
X7Y499D01*
X1530Y499D02*
X1537Y499D01*
X0Y498D02*
X7Y498D01*
X1530Y498D02*
X1537Y498D01*
X0Y497D02*
X7Y497D01*
X1530Y497D02*
X1537Y497D01*
X0Y496D02*
X7Y496D01*
X1530Y496D02*
X1537Y496D01*
X0Y495D02*
X7Y495D01*
X1530Y495D02*
X1537Y495D01*
X0Y494D02*
X7Y494D01*
X1530Y494D02*
X1537Y494D01*
X0Y493D02*
X7Y493D01*
X1530Y493D02*
X1537Y493D01*
X0Y492D02*
X7Y492D01*
X1530Y492D02*
X1537Y492D01*
X0Y491D02*
X7Y491D01*
X1530Y491D02*
X1537Y491D01*
X0Y490D02*
X7Y490D01*
X1530Y490D02*
X1537Y490D01*
X0Y489D02*
X7Y489D01*
X1530Y489D02*
X1537Y489D01*
X0Y488D02*
X7Y488D01*
X1530Y488D02*
X1537Y488D01*
X0Y487D02*
X7Y487D01*
X1530Y487D02*
X1537Y487D01*
X0Y486D02*
X7Y486D01*
X1530Y486D02*
X1537Y486D01*
X0Y485D02*
X7Y485D01*
X1530Y485D02*
X1537Y485D01*
X0Y484D02*
X7Y484D01*
X1530Y484D02*
X1537Y484D01*
X0Y483D02*
X7Y483D01*
X1530Y483D02*
X1537Y483D01*
X0Y482D02*
X7Y482D01*
X1530Y482D02*
X1537Y482D01*
X0Y481D02*
X7Y481D01*
X1530Y481D02*
X1537Y481D01*
X0Y480D02*
X7Y480D01*
X1530Y480D02*
X1537Y480D01*
X0Y479D02*
X7Y479D01*
X1530Y479D02*
X1537Y479D01*
X0Y478D02*
X7Y478D01*
X1530Y478D02*
X1537Y478D01*
X0Y477D02*
X7Y477D01*
X1530Y477D02*
X1537Y477D01*
X0Y476D02*
X7Y476D01*
X1530Y476D02*
X1537Y476D01*
X0Y475D02*
X7Y475D01*
X135Y475D02*
X138Y475D01*
X141Y475D02*
X144Y475D01*
X1530Y475D02*
X1537Y475D01*
X0Y474D02*
X7Y474D01*
X135Y474D02*
X144Y474D01*
X1530Y474D02*
X1537Y474D01*
X0Y473D02*
X7Y473D01*
X135Y473D02*
X144Y473D01*
X1530Y473D02*
X1537Y473D01*
X0Y472D02*
X7Y472D01*
X135Y472D02*
X144Y472D01*
X1530Y472D02*
X1537Y472D01*
X0Y471D02*
X7Y471D01*
X135Y471D02*
X144Y471D01*
X1530Y471D02*
X1537Y471D01*
X0Y470D02*
X7Y470D01*
X135Y470D02*
X144Y470D01*
X1530Y470D02*
X1537Y470D01*
X0Y469D02*
X7Y469D01*
X135Y469D02*
X144Y469D01*
X1530Y469D02*
X1537Y469D01*
X0Y468D02*
X7Y468D01*
X135Y468D02*
X144Y468D01*
X1530Y468D02*
X1537Y468D01*
X0Y467D02*
X7Y467D01*
X135Y467D02*
X144Y467D01*
X1530Y467D02*
X1537Y467D01*
X0Y466D02*
X7Y466D01*
X135Y466D02*
X144Y466D01*
X1530Y466D02*
X1537Y466D01*
X0Y465D02*
X7Y465D01*
X135Y465D02*
X144Y465D01*
X1530Y465D02*
X1537Y465D01*
X0Y464D02*
X7Y464D01*
X135Y464D02*
X144Y464D01*
X1530Y464D02*
X1537Y464D01*
X0Y463D02*
X7Y463D01*
X135Y463D02*
X144Y463D01*
X1530Y463D02*
X1537Y463D01*
X0Y462D02*
X7Y462D01*
X135Y462D02*
X144Y462D01*
X1530Y462D02*
X1537Y462D01*
X0Y461D02*
X7Y461D01*
X135Y461D02*
X144Y461D01*
X1530Y461D02*
X1537Y461D01*
X0Y460D02*
X7Y460D01*
X135Y460D02*
X144Y460D01*
X1530Y460D02*
X1537Y460D01*
X0Y459D02*
X7Y459D01*
X135Y459D02*
X144Y459D01*
X1530Y459D02*
X1537Y459D01*
X0Y458D02*
X7Y458D01*
X135Y458D02*
X144Y458D01*
X1530Y458D02*
X1537Y458D01*
X0Y457D02*
X7Y457D01*
X135Y457D02*
X144Y457D01*
X1530Y457D02*
X1537Y457D01*
X0Y456D02*
X7Y456D01*
X135Y456D02*
X144Y456D01*
X1530Y456D02*
X1537Y456D01*
X0Y455D02*
X7Y455D01*
X135Y455D02*
X144Y455D01*
X1530Y455D02*
X1537Y455D01*
X0Y454D02*
X7Y454D01*
X135Y454D02*
X144Y454D01*
X1530Y454D02*
X1537Y454D01*
X0Y453D02*
X7Y453D01*
X135Y453D02*
X144Y453D01*
X1530Y453D02*
X1537Y453D01*
X0Y452D02*
X7Y452D01*
X135Y452D02*
X144Y452D01*
X1530Y452D02*
X1537Y452D01*
X0Y451D02*
X7Y451D01*
X135Y451D02*
X144Y451D01*
X1530Y451D02*
X1537Y451D01*
X0Y450D02*
X7Y450D01*
X135Y450D02*
X144Y450D01*
X1530Y450D02*
X1537Y450D01*
X0Y449D02*
X7Y449D01*
X135Y449D02*
X144Y449D01*
X1530Y449D02*
X1537Y449D01*
X0Y448D02*
X7Y448D01*
X135Y448D02*
X144Y448D01*
X1530Y448D02*
X1537Y448D01*
X0Y447D02*
X7Y447D01*
X135Y447D02*
X144Y447D01*
X1530Y447D02*
X1537Y447D01*
X0Y446D02*
X7Y446D01*
X135Y446D02*
X144Y446D01*
X1530Y446D02*
X1537Y446D01*
X0Y445D02*
X7Y445D01*
X135Y445D02*
X144Y445D01*
X1530Y445D02*
X1537Y445D01*
X0Y444D02*
X7Y444D01*
X135Y444D02*
X144Y444D01*
X1530Y444D02*
X1537Y444D01*
X0Y443D02*
X7Y443D01*
X135Y443D02*
X144Y443D01*
X1530Y443D02*
X1537Y443D01*
X0Y442D02*
X7Y442D01*
X135Y442D02*
X144Y442D01*
X1530Y442D02*
X1537Y442D01*
X0Y441D02*
X7Y441D01*
X135Y441D02*
X144Y441D01*
X1530Y441D02*
X1537Y441D01*
X0Y440D02*
X7Y440D01*
X135Y440D02*
X144Y440D01*
X1530Y440D02*
X1537Y440D01*
X0Y439D02*
X7Y439D01*
X135Y439D02*
X144Y439D01*
X1530Y439D02*
X1537Y439D01*
X0Y438D02*
X7Y438D01*
X135Y438D02*
X144Y438D01*
X1530Y438D02*
X1537Y438D01*
X0Y437D02*
X7Y437D01*
X135Y437D02*
X144Y437D01*
X1530Y437D02*
X1537Y437D01*
X0Y436D02*
X7Y436D01*
X135Y436D02*
X144Y436D01*
X1530Y436D02*
X1537Y436D01*
X0Y435D02*
X7Y435D01*
X135Y435D02*
X144Y435D01*
X1530Y435D02*
X1537Y435D01*
X0Y434D02*
X7Y434D01*
X135Y434D02*
X144Y434D01*
X1530Y434D02*
X1537Y434D01*
X0Y433D02*
X7Y433D01*
X135Y433D02*
X144Y433D01*
X1530Y433D02*
X1537Y433D01*
X0Y432D02*
X7Y432D01*
X135Y432D02*
X144Y432D01*
X1530Y432D02*
X1537Y432D01*
X0Y431D02*
X7Y431D01*
X135Y431D02*
X144Y431D01*
X743Y431D02*
X748Y431D01*
X1530Y431D02*
X1537Y431D01*
X0Y430D02*
X7Y430D01*
X135Y430D02*
X144Y430D01*
X741Y430D02*
X749Y430D01*
X1530Y430D02*
X1537Y430D01*
X0Y429D02*
X7Y429D01*
X135Y429D02*
X144Y429D01*
X739Y429D02*
X750Y429D01*
X1530Y429D02*
X1537Y429D01*
X0Y428D02*
X7Y428D01*
X135Y428D02*
X144Y428D01*
X738Y428D02*
X750Y428D01*
X1530Y428D02*
X1537Y428D01*
X0Y427D02*
X7Y427D01*
X135Y427D02*
X144Y427D01*
X737Y427D02*
X750Y427D01*
X1530Y427D02*
X1537Y427D01*
X0Y426D02*
X7Y426D01*
X135Y426D02*
X144Y426D01*
X737Y426D02*
X749Y426D01*
X1530Y426D02*
X1537Y426D01*
X0Y425D02*
X7Y425D01*
X135Y425D02*
X144Y425D01*
X736Y425D02*
X749Y425D01*
X1530Y425D02*
X1537Y425D01*
X0Y424D02*
X7Y424D01*
X135Y424D02*
X144Y424D01*
X736Y424D02*
X743Y424D01*
X1530Y424D02*
X1537Y424D01*
X0Y423D02*
X7Y423D01*
X135Y423D02*
X144Y423D01*
X735Y423D02*
X742Y423D01*
X1530Y423D02*
X1537Y423D01*
X0Y422D02*
X7Y422D01*
X135Y422D02*
X144Y422D01*
X735Y422D02*
X741Y422D01*
X1530Y422D02*
X1537Y422D01*
X0Y421D02*
X7Y421D01*
X135Y421D02*
X144Y421D01*
X735Y421D02*
X741Y421D01*
X1530Y421D02*
X1537Y421D01*
X0Y420D02*
X7Y420D01*
X135Y420D02*
X144Y420D01*
X735Y420D02*
X741Y420D01*
X1530Y420D02*
X1537Y420D01*
X0Y419D02*
X7Y419D01*
X135Y419D02*
X144Y419D01*
X735Y419D02*
X741Y419D01*
X1530Y419D02*
X1537Y419D01*
X0Y418D02*
X7Y418D01*
X135Y418D02*
X144Y418D01*
X735Y418D02*
X741Y418D01*
X1530Y418D02*
X1537Y418D01*
X0Y417D02*
X7Y417D01*
X135Y417D02*
X144Y417D01*
X735Y417D02*
X741Y417D01*
X1530Y417D02*
X1537Y417D01*
X0Y416D02*
X7Y416D01*
X135Y416D02*
X144Y416D01*
X735Y416D02*
X741Y416D01*
X1530Y416D02*
X1537Y416D01*
X0Y415D02*
X7Y415D01*
X135Y415D02*
X144Y415D01*
X735Y415D02*
X741Y415D01*
X1530Y415D02*
X1537Y415D01*
X0Y414D02*
X7Y414D01*
X135Y414D02*
X144Y414D01*
X735Y414D02*
X742Y414D01*
X1530Y414D02*
X1537Y414D01*
X0Y413D02*
X7Y413D01*
X135Y413D02*
X144Y413D01*
X735Y413D02*
X743Y413D01*
X1530Y413D02*
X1537Y413D01*
X0Y412D02*
X7Y412D01*
X135Y412D02*
X144Y412D01*
X736Y412D02*
X744Y412D01*
X1530Y412D02*
X1537Y412D01*
X0Y411D02*
X7Y411D01*
X135Y411D02*
X144Y411D01*
X736Y411D02*
X745Y411D01*
X1530Y411D02*
X1537Y411D01*
X0Y410D02*
X7Y410D01*
X135Y410D02*
X144Y410D01*
X737Y410D02*
X746Y410D01*
X1530Y410D02*
X1537Y410D01*
X0Y409D02*
X7Y409D01*
X135Y409D02*
X144Y409D01*
X738Y409D02*
X746Y409D01*
X1530Y409D02*
X1537Y409D01*
X0Y408D02*
X7Y408D01*
X135Y408D02*
X144Y408D01*
X739Y408D02*
X747Y408D01*
X1530Y408D02*
X1537Y408D01*
X0Y407D02*
X7Y407D01*
X740Y407D02*
X748Y407D01*
X1530Y407D02*
X1537Y407D01*
X0Y406D02*
X7Y406D01*
X741Y406D02*
X749Y406D01*
X1530Y406D02*
X1537Y406D01*
X0Y405D02*
X7Y405D01*
X742Y405D02*
X750Y405D01*
X1530Y405D02*
X1537Y405D01*
X0Y404D02*
X7Y404D01*
X742Y404D02*
X751Y404D01*
X1530Y404D02*
X1537Y404D01*
X0Y403D02*
X7Y403D01*
X737Y403D02*
X772Y403D01*
X1530Y403D02*
X1537Y403D01*
X0Y402D02*
X7Y402D01*
X736Y402D02*
X773Y402D01*
X1530Y402D02*
X1537Y402D01*
X0Y401D02*
X7Y401D01*
X735Y401D02*
X773Y401D01*
X1530Y401D02*
X1537Y401D01*
X0Y400D02*
X7Y400D01*
X735Y400D02*
X774Y400D01*
X1530Y400D02*
X1537Y400D01*
X0Y399D02*
X7Y399D01*
X735Y399D02*
X773Y399D01*
X1530Y399D02*
X1537Y399D01*
X0Y398D02*
X7Y398D01*
X736Y398D02*
X773Y398D01*
X1530Y398D02*
X1537Y398D01*
X0Y397D02*
X7Y397D01*
X737Y397D02*
X771Y397D01*
X1530Y397D02*
X1537Y397D01*
X0Y396D02*
X7Y396D01*
X1530Y396D02*
X1537Y396D01*
X0Y395D02*
X7Y395D01*
X1530Y395D02*
X1537Y395D01*
X0Y394D02*
X7Y394D01*
X1530Y394D02*
X1537Y394D01*
X0Y393D02*
X7Y393D01*
X1530Y393D02*
X1537Y393D01*
X0Y392D02*
X7Y392D01*
X1530Y392D02*
X1537Y392D01*
X0Y391D02*
X7Y391D01*
X1530Y391D02*
X1537Y391D01*
X0Y390D02*
X7Y390D01*
X1530Y390D02*
X1537Y390D01*
X0Y389D02*
X7Y389D01*
X1530Y389D02*
X1537Y389D01*
X0Y388D02*
X7Y388D01*
X1530Y388D02*
X1537Y388D01*
X0Y387D02*
X7Y387D01*
X1530Y387D02*
X1537Y387D01*
X0Y386D02*
X7Y386D01*
X1530Y386D02*
X1537Y386D01*
X0Y385D02*
X7Y385D01*
X1530Y385D02*
X1537Y385D01*
X0Y384D02*
X7Y384D01*
X1530Y384D02*
X1537Y384D01*
X0Y383D02*
X7Y383D01*
X1530Y383D02*
X1537Y383D01*
X0Y382D02*
X7Y382D01*
X1530Y382D02*
X1537Y382D01*
X0Y381D02*
X7Y381D01*
X765Y381D02*
X765Y381D01*
X1530Y381D02*
X1537Y381D01*
X0Y380D02*
X7Y380D01*
X763Y380D02*
X768Y380D01*
X1530Y380D02*
X1537Y380D01*
X0Y379D02*
X7Y379D01*
X762Y379D02*
X769Y379D01*
X1530Y379D02*
X1537Y379D01*
X0Y378D02*
X7Y378D01*
X762Y378D02*
X770Y378D01*
X1530Y378D02*
X1537Y378D01*
X0Y377D02*
X7Y377D01*
X737Y377D02*
X739Y377D01*
X762Y377D02*
X771Y377D01*
X1530Y377D02*
X1537Y377D01*
X0Y376D02*
X7Y376D01*
X736Y376D02*
X740Y376D01*
X762Y376D02*
X772Y376D01*
X1530Y376D02*
X1537Y376D01*
X0Y375D02*
X7Y375D01*
X735Y375D02*
X741Y375D01*
X763Y375D02*
X773Y375D01*
X1530Y375D02*
X1537Y375D01*
X0Y374D02*
X7Y374D01*
X735Y374D02*
X741Y374D01*
X765Y374D02*
X773Y374D01*
X1530Y374D02*
X1537Y374D01*
X0Y373D02*
X7Y373D01*
X735Y373D02*
X741Y373D01*
X766Y373D02*
X773Y373D01*
X1530Y373D02*
X1537Y373D01*
X0Y372D02*
X7Y372D01*
X735Y372D02*
X741Y372D01*
X767Y372D02*
X773Y372D01*
X1530Y372D02*
X1537Y372D01*
X0Y371D02*
X7Y371D01*
X735Y371D02*
X741Y371D01*
X767Y371D02*
X774Y371D01*
X1530Y371D02*
X1537Y371D01*
X0Y370D02*
X7Y370D01*
X735Y370D02*
X741Y370D01*
X768Y370D02*
X774Y370D01*
X1530Y370D02*
X1537Y370D01*
X0Y369D02*
X7Y369D01*
X735Y369D02*
X741Y369D01*
X768Y369D02*
X774Y369D01*
X1530Y369D02*
X1537Y369D01*
X0Y368D02*
X7Y368D01*
X735Y368D02*
X741Y368D01*
X768Y368D02*
X774Y368D01*
X1455Y368D02*
X1457Y368D01*
X1530Y368D02*
X1537Y368D01*
X0Y367D02*
X7Y367D01*
X735Y367D02*
X741Y367D01*
X768Y367D02*
X774Y367D01*
X1454Y367D02*
X1458Y367D01*
X1530Y367D02*
X1537Y367D01*
X0Y366D02*
X7Y366D01*
X735Y366D02*
X741Y366D01*
X768Y366D02*
X774Y366D01*
X1453Y366D02*
X1459Y366D01*
X1530Y366D02*
X1537Y366D01*
X0Y365D02*
X7Y365D01*
X735Y365D02*
X741Y365D01*
X768Y365D02*
X774Y365D01*
X1454Y365D02*
X1460Y365D01*
X1530Y365D02*
X1537Y365D01*
X0Y364D02*
X7Y364D01*
X735Y364D02*
X741Y364D01*
X768Y364D02*
X774Y364D01*
X1455Y364D02*
X1461Y364D01*
X1530Y364D02*
X1537Y364D01*
X0Y363D02*
X7Y363D01*
X735Y363D02*
X741Y363D01*
X767Y363D02*
X773Y363D01*
X1456Y363D02*
X1462Y363D01*
X1530Y363D02*
X1537Y363D01*
X0Y362D02*
X7Y362D01*
X735Y362D02*
X741Y362D01*
X767Y362D02*
X773Y362D01*
X1457Y362D02*
X1463Y362D01*
X1530Y362D02*
X1537Y362D01*
X0Y361D02*
X7Y361D01*
X735Y361D02*
X741Y361D01*
X766Y361D02*
X773Y361D01*
X1530Y361D02*
X1537Y361D01*
X0Y360D02*
X7Y360D01*
X725Y360D02*
X773Y360D01*
X1530Y360D02*
X1537Y360D01*
X0Y359D02*
X7Y359D01*
X724Y359D02*
X772Y359D01*
X1530Y359D02*
X1537Y359D01*
X0Y358D02*
X7Y358D01*
X724Y358D02*
X772Y358D01*
X1530Y358D02*
X1537Y358D01*
X0Y357D02*
X7Y357D01*
X723Y357D02*
X771Y357D01*
X1530Y357D02*
X1537Y357D01*
X0Y356D02*
X7Y356D01*
X723Y356D02*
X770Y356D01*
X1530Y356D02*
X1537Y356D01*
X0Y355D02*
X7Y355D01*
X724Y355D02*
X769Y355D01*
X1530Y355D02*
X1537Y355D01*
X0Y354D02*
X7Y354D01*
X112Y354D02*
X163Y354D01*
X725Y354D02*
X767Y354D01*
X1530Y354D02*
X1537Y354D01*
X0Y353D02*
X7Y353D01*
X111Y353D02*
X163Y353D01*
X735Y353D02*
X741Y353D01*
X1530Y353D02*
X1537Y353D01*
X0Y352D02*
X7Y352D01*
X110Y352D02*
X163Y352D01*
X735Y352D02*
X741Y352D01*
X1530Y352D02*
X1537Y352D01*
X0Y351D02*
X7Y351D01*
X110Y351D02*
X163Y351D01*
X735Y351D02*
X741Y351D01*
X1530Y351D02*
X1537Y351D01*
X0Y350D02*
X7Y350D01*
X110Y350D02*
X163Y350D01*
X735Y350D02*
X741Y350D01*
X1530Y350D02*
X1537Y350D01*
X0Y349D02*
X7Y349D01*
X110Y349D02*
X163Y349D01*
X735Y349D02*
X741Y349D01*
X1530Y349D02*
X1537Y349D01*
X0Y348D02*
X7Y348D01*
X111Y348D02*
X163Y348D01*
X736Y348D02*
X740Y348D01*
X1530Y348D02*
X1537Y348D01*
X0Y347D02*
X7Y347D01*
X139Y347D02*
X145Y347D01*
X157Y347D02*
X163Y347D01*
X737Y347D02*
X739Y347D01*
X1530Y347D02*
X1537Y347D01*
X0Y346D02*
X7Y346D01*
X139Y346D02*
X145Y346D01*
X157Y346D02*
X163Y346D01*
X1530Y346D02*
X1537Y346D01*
X0Y345D02*
X7Y345D01*
X139Y345D02*
X145Y345D01*
X157Y345D02*
X163Y345D01*
X1530Y345D02*
X1537Y345D01*
X0Y344D02*
X7Y344D01*
X139Y344D02*
X145Y344D01*
X157Y344D02*
X163Y344D01*
X1530Y344D02*
X1537Y344D01*
X0Y343D02*
X7Y343D01*
X139Y343D02*
X145Y343D01*
X157Y343D02*
X163Y343D01*
X1530Y343D02*
X1537Y343D01*
X0Y342D02*
X7Y342D01*
X138Y342D02*
X145Y342D01*
X157Y342D02*
X163Y342D01*
X1530Y342D02*
X1537Y342D01*
X0Y341D02*
X7Y341D01*
X137Y341D02*
X145Y341D01*
X157Y341D02*
X163Y341D01*
X1484Y341D02*
X1484Y341D01*
X1530Y341D02*
X1537Y341D01*
X0Y340D02*
X7Y340D01*
X135Y340D02*
X145Y340D01*
X157Y340D02*
X163Y340D01*
X1484Y340D02*
X1485Y340D01*
X1530Y340D02*
X1537Y340D01*
X0Y339D02*
X7Y339D01*
X133Y339D02*
X145Y339D01*
X157Y339D02*
X163Y339D01*
X1484Y339D02*
X1486Y339D01*
X1530Y339D02*
X1537Y339D01*
X0Y338D02*
X7Y338D01*
X132Y338D02*
X145Y338D01*
X157Y338D02*
X163Y338D01*
X1484Y338D02*
X1487Y338D01*
X1530Y338D02*
X1537Y338D01*
X0Y337D02*
X7Y337D01*
X130Y337D02*
X145Y337D01*
X157Y337D02*
X163Y337D01*
X1484Y337D02*
X1488Y337D01*
X1530Y337D02*
X1537Y337D01*
X0Y336D02*
X7Y336D01*
X128Y336D02*
X145Y336D01*
X157Y336D02*
X163Y336D01*
X1484Y336D02*
X1489Y336D01*
X1530Y336D02*
X1537Y336D01*
X0Y335D02*
X7Y335D01*
X126Y335D02*
X145Y335D01*
X157Y335D02*
X163Y335D01*
X1484Y335D02*
X1490Y335D01*
X1530Y335D02*
X1537Y335D01*
X0Y334D02*
X7Y334D01*
X125Y334D02*
X145Y334D01*
X157Y334D02*
X163Y334D01*
X1485Y334D02*
X1490Y334D01*
X1530Y334D02*
X1537Y334D01*
X0Y333D02*
X7Y333D01*
X123Y333D02*
X136Y333D01*
X139Y333D02*
X145Y333D01*
X157Y333D02*
X163Y333D01*
X1486Y333D02*
X1489Y333D01*
X1530Y333D02*
X1537Y333D01*
X0Y332D02*
X7Y332D01*
X121Y332D02*
X134Y332D01*
X139Y332D02*
X145Y332D01*
X157Y332D02*
X163Y332D01*
X1487Y332D02*
X1488Y332D01*
X1530Y332D02*
X1537Y332D01*
X0Y331D02*
X7Y331D01*
X120Y331D02*
X133Y331D01*
X139Y331D02*
X145Y331D01*
X157Y331D02*
X163Y331D01*
X1530Y331D02*
X1537Y331D01*
X0Y330D02*
X7Y330D01*
X118Y330D02*
X131Y330D01*
X139Y330D02*
X145Y330D01*
X157Y330D02*
X163Y330D01*
X741Y330D02*
X741Y330D01*
X760Y330D02*
X767Y330D01*
X1530Y330D02*
X1537Y330D01*
X0Y329D02*
X7Y329D01*
X116Y329D02*
X129Y329D01*
X139Y329D02*
X146Y329D01*
X157Y329D02*
X163Y329D01*
X739Y329D02*
X743Y329D01*
X758Y329D02*
X769Y329D01*
X1530Y329D02*
X1537Y329D01*
X0Y328D02*
X7Y328D01*
X114Y328D02*
X127Y328D01*
X140Y328D02*
X146Y328D01*
X156Y328D02*
X163Y328D01*
X738Y328D02*
X744Y328D01*
X757Y328D02*
X770Y328D01*
X1530Y328D02*
X1537Y328D01*
X0Y327D02*
X7Y327D01*
X113Y327D02*
X126Y327D01*
X140Y327D02*
X148Y327D01*
X155Y327D02*
X162Y327D01*
X737Y327D02*
X744Y327D01*
X756Y327D02*
X771Y327D01*
X1530Y327D02*
X1537Y327D01*
X0Y326D02*
X7Y326D01*
X111Y326D02*
X124Y326D01*
X140Y326D02*
X162Y326D01*
X736Y326D02*
X744Y326D01*
X755Y326D02*
X772Y326D01*
X1530Y326D02*
X1537Y326D01*
X0Y325D02*
X7Y325D01*
X110Y325D02*
X122Y325D01*
X141Y325D02*
X162Y325D01*
X736Y325D02*
X744Y325D01*
X755Y325D02*
X772Y325D01*
X1530Y325D02*
X1537Y325D01*
X0Y324D02*
X7Y324D01*
X110Y324D02*
X121Y324D01*
X141Y324D02*
X161Y324D01*
X736Y324D02*
X743Y324D01*
X754Y324D02*
X773Y324D01*
X1530Y324D02*
X1537Y324D01*
X0Y323D02*
X7Y323D01*
X110Y323D02*
X119Y323D01*
X142Y323D02*
X160Y323D01*
X735Y323D02*
X742Y323D01*
X754Y323D02*
X761Y323D01*
X766Y323D02*
X773Y323D01*
X1530Y323D02*
X1537Y323D01*
X0Y322D02*
X7Y322D01*
X110Y322D02*
X117Y322D01*
X143Y322D02*
X159Y322D01*
X735Y322D02*
X741Y322D01*
X753Y322D02*
X760Y322D01*
X767Y322D02*
X773Y322D01*
X1530Y322D02*
X1537Y322D01*
X0Y321D02*
X7Y321D01*
X111Y321D02*
X115Y321D01*
X145Y321D02*
X157Y321D01*
X735Y321D02*
X741Y321D01*
X753Y321D02*
X759Y321D01*
X767Y321D02*
X773Y321D01*
X1530Y321D02*
X1537Y321D01*
X0Y320D02*
X7Y320D01*
X112Y320D02*
X113Y320D01*
X147Y320D02*
X155Y320D01*
X735Y320D02*
X741Y320D01*
X752Y320D02*
X759Y320D01*
X768Y320D02*
X774Y320D01*
X1530Y320D02*
X1537Y320D01*
X0Y319D02*
X7Y319D01*
X735Y319D02*
X741Y319D01*
X752Y319D02*
X758Y319D01*
X768Y319D02*
X774Y319D01*
X1530Y319D02*
X1537Y319D01*
X0Y318D02*
X7Y318D01*
X735Y318D02*
X741Y318D01*
X751Y318D02*
X758Y318D01*
X768Y318D02*
X774Y318D01*
X1530Y318D02*
X1537Y318D01*
X0Y317D02*
X7Y317D01*
X735Y317D02*
X741Y317D01*
X751Y317D02*
X758Y317D01*
X768Y317D02*
X774Y317D01*
X1530Y317D02*
X1537Y317D01*
X0Y316D02*
X7Y316D01*
X735Y316D02*
X741Y316D01*
X751Y316D02*
X757Y316D01*
X768Y316D02*
X774Y316D01*
X1530Y316D02*
X1537Y316D01*
X0Y315D02*
X7Y315D01*
X735Y315D02*
X741Y315D01*
X750Y315D02*
X757Y315D01*
X768Y315D02*
X774Y315D01*
X1530Y315D02*
X1537Y315D01*
X0Y314D02*
X7Y314D01*
X735Y314D02*
X741Y314D01*
X750Y314D02*
X756Y314D01*
X768Y314D02*
X774Y314D01*
X1530Y314D02*
X1537Y314D01*
X0Y313D02*
X7Y313D01*
X735Y313D02*
X741Y313D01*
X749Y313D02*
X756Y313D01*
X768Y313D02*
X774Y313D01*
X1530Y313D02*
X1537Y313D01*
X0Y312D02*
X7Y312D01*
X735Y312D02*
X741Y312D01*
X749Y312D02*
X755Y312D01*
X768Y312D02*
X774Y312D01*
X1530Y312D02*
X1537Y312D01*
X0Y311D02*
X7Y311D01*
X735Y311D02*
X741Y311D01*
X748Y311D02*
X755Y311D01*
X768Y311D02*
X774Y311D01*
X1530Y311D02*
X1537Y311D01*
X0Y310D02*
X7Y310D01*
X735Y310D02*
X741Y310D01*
X748Y310D02*
X755Y310D01*
X768Y310D02*
X774Y310D01*
X1530Y310D02*
X1537Y310D01*
X0Y309D02*
X7Y309D01*
X735Y309D02*
X741Y309D01*
X747Y309D02*
X754Y309D01*
X768Y309D02*
X774Y309D01*
X1530Y309D02*
X1537Y309D01*
X0Y308D02*
X7Y308D01*
X735Y308D02*
X741Y308D01*
X747Y308D02*
X754Y308D01*
X768Y308D02*
X774Y308D01*
X1530Y308D02*
X1537Y308D01*
X0Y307D02*
X7Y307D01*
X735Y307D02*
X741Y307D01*
X747Y307D02*
X753Y307D01*
X768Y307D02*
X774Y307D01*
X1530Y307D02*
X1537Y307D01*
X0Y306D02*
X7Y306D01*
X735Y306D02*
X741Y306D01*
X746Y306D02*
X753Y306D01*
X768Y306D02*
X773Y306D01*
X1530Y306D02*
X1537Y306D01*
X0Y305D02*
X7Y305D01*
X735Y305D02*
X741Y305D01*
X746Y305D02*
X752Y305D01*
X767Y305D02*
X773Y305D01*
X1530Y305D02*
X1537Y305D01*
X0Y304D02*
X7Y304D01*
X113Y304D02*
X113Y304D01*
X160Y304D02*
X160Y304D01*
X735Y304D02*
X752Y304D01*
X767Y304D02*
X773Y304D01*
X1530Y304D02*
X1537Y304D01*
X0Y303D02*
X7Y303D01*
X111Y303D02*
X115Y303D01*
X158Y303D02*
X162Y303D01*
X736Y303D02*
X751Y303D01*
X766Y303D02*
X773Y303D01*
X1530Y303D02*
X1537Y303D01*
X0Y302D02*
X7Y302D01*
X110Y302D02*
X115Y302D01*
X157Y302D02*
X163Y302D01*
X736Y302D02*
X751Y302D01*
X765Y302D02*
X773Y302D01*
X1530Y302D02*
X1537Y302D01*
X0Y301D02*
X7Y301D01*
X110Y301D02*
X116Y301D01*
X157Y301D02*
X163Y301D01*
X737Y301D02*
X750Y301D01*
X765Y301D02*
X772Y301D01*
X1530Y301D02*
X1537Y301D01*
X0Y300D02*
X7Y300D01*
X110Y300D02*
X116Y300D01*
X157Y300D02*
X163Y300D01*
X737Y300D02*
X750Y300D01*
X765Y300D02*
X772Y300D01*
X1530Y300D02*
X1537Y300D01*
X0Y299D02*
X7Y299D01*
X110Y299D02*
X116Y299D01*
X157Y299D02*
X163Y299D01*
X738Y299D02*
X748Y299D01*
X765Y299D02*
X771Y299D01*
X1530Y299D02*
X1537Y299D01*
X0Y298D02*
X7Y298D01*
X110Y298D02*
X116Y298D01*
X157Y298D02*
X163Y298D01*
X740Y298D02*
X747Y298D01*
X765Y298D02*
X770Y298D01*
X1530Y298D02*
X1537Y298D01*
X0Y297D02*
X7Y297D01*
X110Y297D02*
X116Y297D01*
X157Y297D02*
X163Y297D01*
X766Y297D02*
X769Y297D01*
X1530Y297D02*
X1537Y297D01*
X0Y296D02*
X7Y296D01*
X110Y296D02*
X116Y296D01*
X157Y296D02*
X163Y296D01*
X1530Y296D02*
X1537Y296D01*
X0Y295D02*
X7Y295D01*
X110Y295D02*
X116Y295D01*
X157Y295D02*
X163Y295D01*
X1530Y295D02*
X1537Y295D01*
X0Y294D02*
X7Y294D01*
X110Y294D02*
X116Y294D01*
X157Y294D02*
X163Y294D01*
X1530Y294D02*
X1537Y294D01*
X0Y293D02*
X7Y293D01*
X110Y293D02*
X116Y293D01*
X157Y293D02*
X163Y293D01*
X1530Y293D02*
X1537Y293D01*
X0Y292D02*
X7Y292D01*
X110Y292D02*
X116Y292D01*
X157Y292D02*
X163Y292D01*
X1530Y292D02*
X1537Y292D01*
X0Y291D02*
X7Y291D01*
X110Y291D02*
X116Y291D01*
X157Y291D02*
X163Y291D01*
X1530Y291D02*
X1537Y291D01*
X0Y290D02*
X7Y290D01*
X110Y290D02*
X163Y290D01*
X1530Y290D02*
X1537Y290D01*
X0Y289D02*
X7Y289D01*
X110Y289D02*
X163Y289D01*
X1530Y289D02*
X1537Y289D01*
X0Y288D02*
X7Y288D01*
X110Y288D02*
X163Y288D01*
X1530Y288D02*
X1537Y288D01*
X0Y287D02*
X7Y287D01*
X110Y287D02*
X163Y287D01*
X1530Y287D02*
X1537Y287D01*
X0Y286D02*
X7Y286D01*
X110Y286D02*
X163Y286D01*
X1530Y286D02*
X1537Y286D01*
X0Y285D02*
X7Y285D01*
X110Y285D02*
X163Y285D01*
X1530Y285D02*
X1537Y285D01*
X0Y284D02*
X7Y284D01*
X110Y284D02*
X163Y284D01*
X1530Y284D02*
X1537Y284D01*
X0Y283D02*
X7Y283D01*
X110Y283D02*
X116Y283D01*
X1530Y283D02*
X1537Y283D01*
X0Y282D02*
X7Y282D01*
X110Y282D02*
X116Y282D01*
X1530Y282D02*
X1537Y282D01*
X0Y281D02*
X7Y281D01*
X110Y281D02*
X116Y281D01*
X1530Y281D02*
X1537Y281D01*
X0Y280D02*
X7Y280D01*
X110Y280D02*
X116Y280D01*
X744Y280D02*
X770Y280D01*
X1530Y280D02*
X1537Y280D01*
X0Y279D02*
X7Y279D01*
X110Y279D02*
X116Y279D01*
X741Y279D02*
X772Y279D01*
X1019Y279D02*
X1021Y279D01*
X1530Y279D02*
X1537Y279D01*
X0Y278D02*
X7Y278D01*
X110Y278D02*
X116Y278D01*
X739Y278D02*
X773Y278D01*
X1018Y278D02*
X1023Y278D01*
X1530Y278D02*
X1537Y278D01*
X0Y277D02*
X7Y277D01*
X110Y277D02*
X116Y277D01*
X738Y277D02*
X773Y277D01*
X853Y277D02*
X856Y277D01*
X1018Y277D02*
X1026Y277D01*
X1530Y277D02*
X1537Y277D01*
X0Y276D02*
X7Y276D01*
X110Y276D02*
X132Y276D01*
X737Y276D02*
X773Y276D01*
X849Y276D02*
X857Y276D01*
X1018Y276D02*
X1026Y276D01*
X1530Y276D02*
X1537Y276D01*
X0Y275D02*
X7Y275D01*
X110Y275D02*
X133Y275D01*
X737Y275D02*
X773Y275D01*
X848Y275D02*
X857Y275D01*
X1018Y275D02*
X1027Y275D01*
X1530Y275D02*
X1537Y275D01*
X0Y274D02*
X7Y274D01*
X110Y274D02*
X133Y274D01*
X736Y274D02*
X772Y274D01*
X848Y274D02*
X857Y274D01*
X1017Y274D02*
X1026Y274D01*
X1530Y274D02*
X1537Y274D01*
X0Y273D02*
X7Y273D01*
X110Y273D02*
X134Y273D01*
X736Y273D02*
X744Y273D01*
X848Y273D02*
X857Y273D01*
X1017Y273D02*
X1026Y273D01*
X1530Y273D02*
X1537Y273D01*
X0Y272D02*
X7Y272D01*
X110Y272D02*
X133Y272D01*
X735Y272D02*
X742Y272D01*
X848Y272D02*
X857Y272D01*
X1017Y272D02*
X1026Y272D01*
X1530Y272D02*
X1537Y272D01*
X0Y271D02*
X7Y271D01*
X111Y271D02*
X133Y271D01*
X735Y271D02*
X741Y271D01*
X848Y271D02*
X857Y271D01*
X1017Y271D02*
X1026Y271D01*
X1530Y271D02*
X1537Y271D01*
X0Y270D02*
X7Y270D01*
X112Y270D02*
X132Y270D01*
X735Y270D02*
X741Y270D01*
X848Y270D02*
X857Y270D01*
X1017Y270D02*
X1026Y270D01*
X1530Y270D02*
X1537Y270D01*
X0Y269D02*
X7Y269D01*
X735Y269D02*
X741Y269D01*
X848Y269D02*
X858Y269D01*
X1017Y269D02*
X1026Y269D01*
X1530Y269D02*
X1537Y269D01*
X0Y268D02*
X7Y268D01*
X735Y268D02*
X741Y268D01*
X849Y268D02*
X858Y268D01*
X1017Y268D02*
X1026Y268D01*
X1530Y268D02*
X1537Y268D01*
X0Y267D02*
X7Y267D01*
X735Y267D02*
X741Y267D01*
X849Y267D02*
X858Y267D01*
X1016Y267D02*
X1026Y267D01*
X1530Y267D02*
X1537Y267D01*
X0Y266D02*
X7Y266D01*
X735Y266D02*
X741Y266D01*
X849Y266D02*
X858Y266D01*
X1016Y266D02*
X1025Y266D01*
X1530Y266D02*
X1537Y266D01*
X0Y265D02*
X7Y265D01*
X735Y265D02*
X741Y265D01*
X849Y265D02*
X859Y265D01*
X1016Y265D02*
X1025Y265D01*
X1530Y265D02*
X1537Y265D01*
X0Y264D02*
X7Y264D01*
X735Y264D02*
X741Y264D01*
X850Y264D02*
X859Y264D01*
X1015Y264D02*
X1025Y264D01*
X1530Y264D02*
X1537Y264D01*
X0Y263D02*
X7Y263D01*
X735Y263D02*
X742Y263D01*
X850Y263D02*
X860Y263D01*
X1015Y263D02*
X1024Y263D01*
X1530Y263D02*
X1537Y263D01*
X0Y262D02*
X7Y262D01*
X736Y262D02*
X743Y262D01*
X850Y262D02*
X860Y262D01*
X1014Y262D02*
X1024Y262D01*
X1530Y262D02*
X1537Y262D01*
X0Y261D02*
X7Y261D01*
X736Y261D02*
X743Y261D01*
X851Y261D02*
X860Y261D01*
X1014Y261D02*
X1024Y261D01*
X1530Y261D02*
X1537Y261D01*
X0Y260D02*
X7Y260D01*
X737Y260D02*
X744Y260D01*
X851Y260D02*
X861Y260D01*
X1013Y260D02*
X1023Y260D01*
X1530Y260D02*
X1537Y260D01*
X0Y259D02*
X7Y259D01*
X737Y259D02*
X745Y259D01*
X852Y259D02*
X862Y259D01*
X1013Y259D02*
X1023Y259D01*
X1530Y259D02*
X1537Y259D01*
X0Y258D02*
X7Y258D01*
X738Y258D02*
X745Y258D01*
X852Y258D02*
X862Y258D01*
X1012Y258D02*
X1022Y258D01*
X1530Y258D02*
X1537Y258D01*
X0Y257D02*
X7Y257D01*
X739Y257D02*
X746Y257D01*
X853Y257D02*
X863Y257D01*
X1011Y257D02*
X1022Y257D01*
X1530Y257D02*
X1537Y257D01*
X0Y256D02*
X7Y256D01*
X739Y256D02*
X747Y256D01*
X853Y256D02*
X864Y256D01*
X1011Y256D02*
X1021Y256D01*
X1530Y256D02*
X1537Y256D01*
X0Y255D02*
X7Y255D01*
X740Y255D02*
X747Y255D01*
X854Y255D02*
X864Y255D01*
X1010Y255D02*
X1021Y255D01*
X1530Y255D02*
X1537Y255D01*
X0Y254D02*
X7Y254D01*
X740Y254D02*
X748Y254D01*
X854Y254D02*
X865Y254D01*
X1009Y254D02*
X1020Y254D01*
X1311Y254D02*
X1316Y254D01*
X1530Y254D02*
X1537Y254D01*
X0Y253D02*
X7Y253D01*
X738Y253D02*
X770Y253D01*
X855Y253D02*
X866Y253D01*
X1008Y253D02*
X1019Y253D01*
X1310Y253D02*
X1317Y253D01*
X1530Y253D02*
X1537Y253D01*
X0Y252D02*
X7Y252D01*
X736Y252D02*
X772Y252D01*
X856Y252D02*
X867Y252D01*
X1007Y252D02*
X1019Y252D01*
X1309Y252D02*
X1318Y252D01*
X1530Y252D02*
X1537Y252D01*
X0Y251D02*
X7Y251D01*
X735Y251D02*
X773Y251D01*
X856Y251D02*
X868Y251D01*
X1006Y251D02*
X1018Y251D01*
X1204Y251D02*
X1225Y251D01*
X1309Y251D02*
X1318Y251D01*
X1451Y251D02*
X1453Y251D01*
X1530Y251D02*
X1537Y251D01*
X0Y250D02*
X7Y250D01*
X735Y250D02*
X773Y250D01*
X857Y250D02*
X869Y250D01*
X1005Y250D02*
X1017Y250D01*
X1202Y250D02*
X1227Y250D01*
X1309Y250D02*
X1318Y250D01*
X1450Y250D02*
X1454Y250D01*
X1530Y250D02*
X1537Y250D01*
X0Y249D02*
X7Y249D01*
X735Y249D02*
X773Y249D01*
X858Y249D02*
X870Y249D01*
X1004Y249D02*
X1016Y249D01*
X1200Y249D02*
X1228Y249D01*
X1309Y249D02*
X1318Y249D01*
X1449Y249D02*
X1455Y249D01*
X1530Y249D02*
X1537Y249D01*
X0Y248D02*
X7Y248D01*
X736Y248D02*
X773Y248D01*
X859Y248D02*
X871Y248D01*
X1003Y248D02*
X1016Y248D01*
X1200Y248D02*
X1229Y248D01*
X1309Y248D02*
X1318Y248D01*
X1357Y248D02*
X1360Y248D01*
X1449Y248D02*
X1455Y248D01*
X1530Y248D02*
X1537Y248D01*
X0Y247D02*
X7Y247D01*
X736Y247D02*
X772Y247D01*
X859Y247D02*
X873Y247D01*
X1002Y247D02*
X1015Y247D01*
X1199Y247D02*
X1230Y247D01*
X1309Y247D02*
X1318Y247D01*
X1356Y247D02*
X1361Y247D01*
X1449Y247D02*
X1455Y247D01*
X1530Y247D02*
X1537Y247D01*
X0Y246D02*
X7Y246D01*
X860Y246D02*
X874Y246D01*
X1000Y246D02*
X1014Y246D01*
X1199Y246D02*
X1231Y246D01*
X1309Y246D02*
X1318Y246D01*
X1356Y246D02*
X1361Y246D01*
X1449Y246D02*
X1455Y246D01*
X1530Y246D02*
X1537Y246D01*
X0Y245D02*
X7Y245D01*
X861Y245D02*
X875Y245D01*
X999Y245D02*
X1013Y245D01*
X1198Y245D02*
X1231Y245D01*
X1310Y245D02*
X1317Y245D01*
X1356Y245D02*
X1362Y245D01*
X1449Y245D02*
X1455Y245D01*
X1530Y245D02*
X1537Y245D01*
X0Y244D02*
X7Y244D01*
X862Y244D02*
X877Y244D01*
X998Y244D02*
X1012Y244D01*
X1198Y244D02*
X1204Y244D01*
X1224Y244D02*
X1232Y244D01*
X1356Y244D02*
X1362Y244D01*
X1449Y244D02*
X1455Y244D01*
X1530Y244D02*
X1537Y244D01*
X0Y243D02*
X7Y243D01*
X863Y243D02*
X878Y243D01*
X996Y243D02*
X1011Y243D01*
X1198Y243D02*
X1204Y243D01*
X1225Y243D02*
X1232Y243D01*
X1356Y243D02*
X1362Y243D01*
X1449Y243D02*
X1455Y243D01*
X1530Y243D02*
X1537Y243D01*
X0Y242D02*
X7Y242D01*
X864Y242D02*
X880Y242D01*
X994Y242D02*
X1010Y242D01*
X1198Y242D02*
X1205Y242D01*
X1226Y242D02*
X1232Y242D01*
X1356Y242D02*
X1362Y242D01*
X1449Y242D02*
X1455Y242D01*
X1530Y242D02*
X1537Y242D01*
X0Y241D02*
X7Y241D01*
X865Y241D02*
X882Y241D01*
X993Y241D02*
X1009Y241D01*
X1199Y241D02*
X1206Y241D01*
X1226Y241D02*
X1232Y241D01*
X1356Y241D02*
X1362Y241D01*
X1449Y241D02*
X1455Y241D01*
X1530Y241D02*
X1537Y241D01*
X0Y240D02*
X7Y240D01*
X867Y240D02*
X883Y240D01*
X991Y240D02*
X1008Y240D01*
X1199Y240D02*
X1207Y240D01*
X1226Y240D02*
X1231Y240D01*
X1356Y240D02*
X1362Y240D01*
X1449Y240D02*
X1455Y240D01*
X1530Y240D02*
X1537Y240D01*
X0Y239D02*
X7Y239D01*
X868Y239D02*
X885Y239D01*
X989Y239D02*
X1007Y239D01*
X1200Y239D02*
X1207Y239D01*
X1227Y239D02*
X1230Y239D01*
X1356Y239D02*
X1362Y239D01*
X1449Y239D02*
X1455Y239D01*
X1530Y239D02*
X1537Y239D01*
X0Y238D02*
X7Y238D01*
X869Y238D02*
X887Y238D01*
X987Y238D02*
X1005Y238D01*
X1200Y238D02*
X1208Y238D01*
X1356Y238D02*
X1362Y238D01*
X1449Y238D02*
X1455Y238D01*
X1530Y238D02*
X1537Y238D01*
X0Y237D02*
X7Y237D01*
X870Y237D02*
X890Y237D01*
X985Y237D02*
X1004Y237D01*
X1201Y237D02*
X1209Y237D01*
X1356Y237D02*
X1362Y237D01*
X1449Y237D02*
X1455Y237D01*
X1530Y237D02*
X1537Y237D01*
X0Y236D02*
X7Y236D01*
X872Y236D02*
X892Y236D01*
X983Y236D02*
X1002Y236D01*
X1202Y236D02*
X1210Y236D01*
X1250Y236D02*
X1252Y236D01*
X1278Y236D02*
X1281Y236D01*
X1304Y236D02*
X1317Y236D01*
X1350Y236D02*
X1377Y236D01*
X1412Y236D02*
X1431Y236D01*
X1449Y236D02*
X1455Y236D01*
X1465Y236D02*
X1475Y236D01*
X1530Y236D02*
X1537Y236D01*
X0Y235D02*
X7Y235D01*
X873Y235D02*
X894Y235D01*
X980Y235D02*
X1001Y235D01*
X1203Y235D02*
X1211Y235D01*
X1249Y235D02*
X1253Y235D01*
X1277Y235D02*
X1282Y235D01*
X1303Y235D02*
X1318Y235D01*
X1349Y235D02*
X1378Y235D01*
X1410Y235D02*
X1432Y235D01*
X1449Y235D02*
X1455Y235D01*
X1463Y235D02*
X1477Y235D01*
X1530Y235D02*
X1537Y235D01*
X0Y234D02*
X7Y234D01*
X875Y234D02*
X897Y234D01*
X977Y234D02*
X1000Y234D01*
X1203Y234D02*
X1211Y234D01*
X1248Y234D02*
X1254Y234D01*
X1276Y234D02*
X1282Y234D01*
X1302Y234D02*
X1318Y234D01*
X1349Y234D02*
X1379Y234D01*
X1408Y234D02*
X1432Y234D01*
X1449Y234D02*
X1455Y234D01*
X1461Y234D02*
X1479Y234D01*
X1530Y234D02*
X1537Y234D01*
X0Y233D02*
X7Y233D01*
X876Y233D02*
X900Y233D01*
X974Y233D02*
X998Y233D01*
X1204Y233D02*
X1212Y233D01*
X1248Y233D02*
X1254Y233D01*
X1276Y233D02*
X1282Y233D01*
X1302Y233D02*
X1318Y233D01*
X1349Y233D02*
X1379Y233D01*
X1407Y233D02*
X1432Y233D01*
X1449Y233D02*
X1455Y233D01*
X1460Y233D02*
X1480Y233D01*
X1530Y233D02*
X1537Y233D01*
X0Y232D02*
X7Y232D01*
X878Y232D02*
X904Y232D01*
X971Y232D02*
X996Y232D01*
X1205Y232D02*
X1213Y232D01*
X1248Y232D02*
X1254Y232D01*
X1276Y232D02*
X1282Y232D01*
X1302Y232D02*
X1318Y232D01*
X1349Y232D02*
X1379Y232D01*
X1406Y232D02*
X1432Y232D01*
X1449Y232D02*
X1455Y232D01*
X1458Y232D02*
X1480Y232D01*
X1530Y232D02*
X1537Y232D01*
X0Y231D02*
X7Y231D01*
X880Y231D02*
X907Y231D01*
X967Y231D02*
X994Y231D01*
X1206Y231D02*
X1214Y231D01*
X1248Y231D02*
X1254Y231D01*
X1276Y231D02*
X1282Y231D01*
X1303Y231D02*
X1318Y231D01*
X1350Y231D02*
X1378Y231D01*
X1405Y231D02*
X1432Y231D01*
X1449Y231D02*
X1481Y231D01*
X1530Y231D02*
X1537Y231D01*
X0Y230D02*
X7Y230D01*
X743Y230D02*
X748Y230D01*
X882Y230D02*
X912Y230D01*
X962Y230D02*
X992Y230D01*
X1206Y230D02*
X1214Y230D01*
X1248Y230D02*
X1254Y230D01*
X1276Y230D02*
X1282Y230D01*
X1304Y230D02*
X1318Y230D01*
X1351Y230D02*
X1377Y230D01*
X1404Y230D02*
X1430Y230D01*
X1449Y230D02*
X1482Y230D01*
X1530Y230D02*
X1537Y230D01*
X0Y229D02*
X7Y229D01*
X740Y229D02*
X749Y229D01*
X884Y229D02*
X918Y229D01*
X956Y229D02*
X990Y229D01*
X1207Y229D02*
X1215Y229D01*
X1248Y229D02*
X1254Y229D01*
X1276Y229D02*
X1282Y229D01*
X1312Y229D02*
X1318Y229D01*
X1356Y229D02*
X1362Y229D01*
X1403Y229D02*
X1412Y229D01*
X1449Y229D02*
X1465Y229D01*
X1475Y229D02*
X1482Y229D01*
X1530Y229D02*
X1537Y229D01*
X0Y228D02*
X7Y228D01*
X739Y228D02*
X750Y228D01*
X886Y228D02*
X928Y228D01*
X947Y228D02*
X988Y228D01*
X1208Y228D02*
X1216Y228D01*
X1248Y228D02*
X1254Y228D01*
X1276Y228D02*
X1282Y228D01*
X1312Y228D02*
X1318Y228D01*
X1356Y228D02*
X1362Y228D01*
X1402Y228D02*
X1411Y228D01*
X1449Y228D02*
X1464Y228D01*
X1476Y228D02*
X1482Y228D01*
X1530Y228D02*
X1537Y228D01*
X0Y227D02*
X7Y227D01*
X738Y227D02*
X750Y227D01*
X888Y227D02*
X986Y227D01*
X1209Y227D02*
X1217Y227D01*
X1248Y227D02*
X1254Y227D01*
X1276Y227D02*
X1282Y227D01*
X1312Y227D02*
X1318Y227D01*
X1356Y227D02*
X1362Y227D01*
X1401Y227D02*
X1410Y227D01*
X1449Y227D02*
X1462Y227D01*
X1476Y227D02*
X1482Y227D01*
X1530Y227D02*
X1537Y227D01*
X0Y226D02*
X7Y226D01*
X737Y226D02*
X750Y226D01*
X891Y226D02*
X983Y226D01*
X1210Y226D02*
X1218Y226D01*
X1248Y226D02*
X1254Y226D01*
X1276Y226D02*
X1282Y226D01*
X1312Y226D02*
X1318Y226D01*
X1356Y226D02*
X1362Y226D01*
X1400Y226D02*
X1409Y226D01*
X1449Y226D02*
X1461Y226D01*
X1476Y226D02*
X1482Y226D01*
X1530Y226D02*
X1537Y226D01*
X0Y225D02*
X7Y225D01*
X736Y225D02*
X749Y225D01*
X894Y225D02*
X981Y225D01*
X1210Y225D02*
X1218Y225D01*
X1248Y225D02*
X1254Y225D01*
X1276Y225D02*
X1282Y225D01*
X1312Y225D02*
X1318Y225D01*
X1356Y225D02*
X1362Y225D01*
X1400Y225D02*
X1408Y225D01*
X1449Y225D02*
X1459Y225D01*
X1476Y225D02*
X1482Y225D01*
X1530Y225D02*
X1537Y225D01*
X0Y224D02*
X7Y224D01*
X736Y224D02*
X748Y224D01*
X897Y224D02*
X978Y224D01*
X1211Y224D02*
X1219Y224D01*
X1248Y224D02*
X1254Y224D01*
X1263Y224D02*
X1267Y224D01*
X1276Y224D02*
X1282Y224D01*
X1312Y224D02*
X1318Y224D01*
X1356Y224D02*
X1362Y224D01*
X1399Y224D02*
X1407Y224D01*
X1449Y224D02*
X1458Y224D01*
X1476Y224D02*
X1482Y224D01*
X1530Y224D02*
X1537Y224D01*
X0Y223D02*
X7Y223D01*
X736Y223D02*
X743Y223D01*
X900Y223D02*
X974Y223D01*
X1212Y223D02*
X1220Y223D01*
X1248Y223D02*
X1254Y223D01*
X1263Y223D02*
X1268Y223D01*
X1276Y223D02*
X1282Y223D01*
X1312Y223D02*
X1318Y223D01*
X1356Y223D02*
X1362Y223D01*
X1399Y223D02*
X1406Y223D01*
X1449Y223D02*
X1456Y223D01*
X1476Y223D02*
X1482Y223D01*
X1530Y223D02*
X1537Y223D01*
X0Y222D02*
X7Y222D01*
X735Y222D02*
X742Y222D01*
X903Y222D02*
X971Y222D01*
X1213Y222D02*
X1221Y222D01*
X1248Y222D02*
X1254Y222D01*
X1262Y222D02*
X1268Y222D01*
X1276Y222D02*
X1282Y222D01*
X1312Y222D02*
X1318Y222D01*
X1356Y222D02*
X1362Y222D01*
X1399Y222D02*
X1405Y222D01*
X1449Y222D02*
X1455Y222D01*
X1476Y222D02*
X1482Y222D01*
X1530Y222D02*
X1537Y222D01*
X0Y221D02*
X7Y221D01*
X735Y221D02*
X741Y221D01*
X908Y221D02*
X967Y221D01*
X1213Y221D02*
X1221Y221D01*
X1248Y221D02*
X1254Y221D01*
X1262Y221D02*
X1268Y221D01*
X1276Y221D02*
X1282Y221D01*
X1312Y221D02*
X1318Y221D01*
X1356Y221D02*
X1362Y221D01*
X1399Y221D02*
X1405Y221D01*
X1449Y221D02*
X1455Y221D01*
X1476Y221D02*
X1482Y221D01*
X1530Y221D02*
X1537Y221D01*
X0Y220D02*
X7Y220D01*
X735Y220D02*
X741Y220D01*
X912Y220D02*
X962Y220D01*
X1214Y220D02*
X1222Y220D01*
X1248Y220D02*
X1254Y220D01*
X1262Y220D02*
X1268Y220D01*
X1276Y220D02*
X1282Y220D01*
X1312Y220D02*
X1318Y220D01*
X1356Y220D02*
X1362Y220D01*
X1399Y220D02*
X1405Y220D01*
X1449Y220D02*
X1455Y220D01*
X1476Y220D02*
X1482Y220D01*
X1530Y220D02*
X1537Y220D01*
X0Y219D02*
X7Y219D01*
X735Y219D02*
X741Y219D01*
X919Y219D02*
X956Y219D01*
X1215Y219D02*
X1223Y219D01*
X1248Y219D02*
X1254Y219D01*
X1262Y219D02*
X1268Y219D01*
X1276Y219D02*
X1282Y219D01*
X1312Y219D02*
X1318Y219D01*
X1356Y219D02*
X1362Y219D01*
X1399Y219D02*
X1405Y219D01*
X1449Y219D02*
X1455Y219D01*
X1476Y219D02*
X1482Y219D01*
X1530Y219D02*
X1537Y219D01*
X0Y218D02*
X7Y218D01*
X735Y218D02*
X741Y218D01*
X928Y218D02*
X946Y218D01*
X1216Y218D02*
X1224Y218D01*
X1248Y218D02*
X1254Y218D01*
X1262Y218D02*
X1268Y218D01*
X1276Y218D02*
X1282Y218D01*
X1312Y218D02*
X1318Y218D01*
X1356Y218D02*
X1362Y218D01*
X1399Y218D02*
X1405Y218D01*
X1449Y218D02*
X1455Y218D01*
X1476Y218D02*
X1482Y218D01*
X1530Y218D02*
X1537Y218D01*
X0Y217D02*
X7Y217D01*
X735Y217D02*
X741Y217D01*
X1216Y217D02*
X1224Y217D01*
X1248Y217D02*
X1254Y217D01*
X1262Y217D02*
X1268Y217D01*
X1276Y217D02*
X1282Y217D01*
X1312Y217D02*
X1318Y217D01*
X1356Y217D02*
X1362Y217D01*
X1399Y217D02*
X1405Y217D01*
X1449Y217D02*
X1455Y217D01*
X1476Y217D02*
X1482Y217D01*
X1530Y217D02*
X1537Y217D01*
X0Y216D02*
X7Y216D01*
X735Y216D02*
X741Y216D01*
X1217Y216D02*
X1225Y216D01*
X1248Y216D02*
X1254Y216D01*
X1262Y216D02*
X1268Y216D01*
X1276Y216D02*
X1282Y216D01*
X1312Y216D02*
X1318Y216D01*
X1356Y216D02*
X1362Y216D01*
X1399Y216D02*
X1405Y216D01*
X1449Y216D02*
X1455Y216D01*
X1476Y216D02*
X1482Y216D01*
X1530Y216D02*
X1537Y216D01*
X0Y215D02*
X7Y215D01*
X735Y215D02*
X741Y215D01*
X1218Y215D02*
X1226Y215D01*
X1248Y215D02*
X1254Y215D01*
X1262Y215D02*
X1268Y215D01*
X1276Y215D02*
X1282Y215D01*
X1312Y215D02*
X1318Y215D01*
X1356Y215D02*
X1362Y215D01*
X1399Y215D02*
X1405Y215D01*
X1449Y215D02*
X1455Y215D01*
X1476Y215D02*
X1482Y215D01*
X1530Y215D02*
X1537Y215D01*
X0Y214D02*
X7Y214D01*
X735Y214D02*
X741Y214D01*
X1219Y214D02*
X1227Y214D01*
X1248Y214D02*
X1254Y214D01*
X1262Y214D02*
X1268Y214D01*
X1276Y214D02*
X1282Y214D01*
X1312Y214D02*
X1318Y214D01*
X1356Y214D02*
X1362Y214D01*
X1399Y214D02*
X1405Y214D01*
X1449Y214D02*
X1455Y214D01*
X1476Y214D02*
X1482Y214D01*
X1530Y214D02*
X1537Y214D01*
X0Y213D02*
X7Y213D01*
X735Y213D02*
X742Y213D01*
X1220Y213D02*
X1228Y213D01*
X1248Y213D02*
X1254Y213D01*
X1262Y213D02*
X1268Y213D01*
X1276Y213D02*
X1282Y213D01*
X1312Y213D02*
X1318Y213D01*
X1356Y213D02*
X1362Y213D01*
X1399Y213D02*
X1405Y213D01*
X1449Y213D02*
X1455Y213D01*
X1476Y213D02*
X1482Y213D01*
X1530Y213D02*
X1537Y213D01*
X0Y212D02*
X7Y212D01*
X735Y212D02*
X743Y212D01*
X1220Y212D02*
X1228Y212D01*
X1248Y212D02*
X1254Y212D01*
X1261Y212D02*
X1269Y212D01*
X1276Y212D02*
X1282Y212D01*
X1312Y212D02*
X1318Y212D01*
X1356Y212D02*
X1362Y212D01*
X1399Y212D02*
X1405Y212D01*
X1449Y212D02*
X1455Y212D01*
X1476Y212D02*
X1482Y212D01*
X1530Y212D02*
X1537Y212D01*
X0Y211D02*
X7Y211D01*
X736Y211D02*
X744Y211D01*
X1221Y211D02*
X1229Y211D01*
X1248Y211D02*
X1255Y211D01*
X1261Y211D02*
X1270Y211D01*
X1276Y211D02*
X1282Y211D01*
X1312Y211D02*
X1318Y211D01*
X1356Y211D02*
X1362Y211D01*
X1399Y211D02*
X1405Y211D01*
X1449Y211D02*
X1455Y211D01*
X1476Y211D02*
X1482Y211D01*
X1530Y211D02*
X1537Y211D01*
X0Y210D02*
X7Y210D01*
X737Y210D02*
X745Y210D01*
X1201Y210D02*
X1201Y210D01*
X1222Y210D02*
X1230Y210D01*
X1249Y210D02*
X1255Y210D01*
X1260Y210D02*
X1270Y210D01*
X1275Y210D02*
X1282Y210D01*
X1312Y210D02*
X1318Y210D01*
X1356Y210D02*
X1362Y210D01*
X1379Y210D02*
X1379Y210D01*
X1399Y210D02*
X1406Y210D01*
X1449Y210D02*
X1455Y210D01*
X1476Y210D02*
X1482Y210D01*
X1530Y210D02*
X1537Y210D01*
X0Y209D02*
X7Y209D01*
X737Y209D02*
X746Y209D01*
X1199Y209D02*
X1203Y209D01*
X1223Y209D02*
X1231Y209D01*
X1249Y209D02*
X1255Y209D01*
X1260Y209D02*
X1271Y209D01*
X1275Y209D02*
X1281Y209D01*
X1312Y209D02*
X1318Y209D01*
X1356Y209D02*
X1362Y209D01*
X1377Y209D02*
X1381Y209D01*
X1400Y209D02*
X1407Y209D01*
X1449Y209D02*
X1455Y209D01*
X1476Y209D02*
X1482Y209D01*
X1530Y209D02*
X1537Y209D01*
X0Y208D02*
X7Y208D01*
X738Y208D02*
X747Y208D01*
X1198Y208D02*
X1204Y208D01*
X1223Y208D02*
X1231Y208D01*
X1249Y208D02*
X1256Y208D01*
X1259Y208D02*
X1271Y208D01*
X1275Y208D02*
X1281Y208D01*
X1312Y208D02*
X1318Y208D01*
X1356Y208D02*
X1362Y208D01*
X1377Y208D02*
X1382Y208D01*
X1400Y208D02*
X1409Y208D01*
X1449Y208D02*
X1455Y208D01*
X1476Y208D02*
X1482Y208D01*
X1530Y208D02*
X1537Y208D01*
X0Y207D02*
X7Y207D01*
X135Y207D02*
X144Y207D01*
X739Y207D02*
X747Y207D01*
X1198Y207D02*
X1204Y207D01*
X1224Y207D02*
X1231Y207D01*
X1249Y207D02*
X1256Y207D01*
X1258Y207D02*
X1272Y207D01*
X1274Y207D02*
X1281Y207D01*
X1312Y207D02*
X1318Y207D01*
X1356Y207D02*
X1362Y207D01*
X1376Y207D02*
X1382Y207D01*
X1401Y207D02*
X1410Y207D01*
X1449Y207D02*
X1455Y207D01*
X1476Y207D02*
X1482Y207D01*
X1530Y207D02*
X1537Y207D01*
X0Y206D02*
X7Y206D01*
X135Y206D02*
X144Y206D01*
X740Y206D02*
X748Y206D01*
X1198Y206D02*
X1204Y206D01*
X1225Y206D02*
X1232Y206D01*
X1250Y206D02*
X1281Y206D01*
X1312Y206D02*
X1318Y206D01*
X1356Y206D02*
X1362Y206D01*
X1376Y206D02*
X1382Y206D01*
X1401Y206D02*
X1411Y206D01*
X1449Y206D02*
X1455Y206D01*
X1476Y206D02*
X1482Y206D01*
X1530Y206D02*
X1537Y206D01*
X0Y205D02*
X7Y205D01*
X135Y205D02*
X144Y205D01*
X741Y205D02*
X749Y205D01*
X1198Y205D02*
X1205Y205D01*
X1226Y205D02*
X1232Y205D01*
X1250Y205D02*
X1264Y205D01*
X1266Y205D02*
X1280Y205D01*
X1312Y205D02*
X1318Y205D01*
X1356Y205D02*
X1363Y205D01*
X1375Y205D02*
X1382Y205D01*
X1402Y205D02*
X1412Y205D01*
X1449Y205D02*
X1455Y205D01*
X1476Y205D02*
X1482Y205D01*
X1530Y205D02*
X1537Y205D01*
X0Y204D02*
X7Y204D01*
X135Y204D02*
X144Y204D01*
X742Y204D02*
X750Y204D01*
X1199Y204D02*
X1232Y204D01*
X1250Y204D02*
X1264Y204D01*
X1267Y204D02*
X1280Y204D01*
X1304Y204D02*
X1326Y204D01*
X1356Y204D02*
X1382Y204D01*
X1404Y204D02*
X1430Y204D01*
X1449Y204D02*
X1455Y204D01*
X1476Y204D02*
X1482Y204D01*
X1530Y204D02*
X1537Y204D01*
X0Y203D02*
X7Y203D01*
X135Y203D02*
X144Y203D01*
X742Y203D02*
X751Y203D01*
X1199Y203D02*
X1231Y203D01*
X1251Y203D02*
X1263Y203D01*
X1267Y203D02*
X1280Y203D01*
X1303Y203D02*
X1328Y203D01*
X1357Y203D02*
X1381Y203D01*
X1405Y203D02*
X1432Y203D01*
X1449Y203D02*
X1455Y203D01*
X1476Y203D02*
X1482Y203D01*
X1530Y203D02*
X1537Y203D01*
X0Y202D02*
X7Y202D01*
X135Y202D02*
X144Y202D01*
X736Y202D02*
X772Y202D01*
X1199Y202D02*
X1231Y202D01*
X1251Y202D02*
X1263Y202D01*
X1268Y202D02*
X1279Y202D01*
X1302Y202D02*
X1328Y202D01*
X1357Y202D02*
X1381Y202D01*
X1406Y202D02*
X1432Y202D01*
X1449Y202D02*
X1455Y202D01*
X1476Y202D02*
X1482Y202D01*
X1530Y202D02*
X1537Y202D01*
X0Y201D02*
X7Y201D01*
X135Y201D02*
X144Y201D01*
X736Y201D02*
X773Y201D01*
X1200Y201D02*
X1231Y201D01*
X1251Y201D02*
X1262Y201D01*
X1268Y201D02*
X1279Y201D01*
X1302Y201D02*
X1329Y201D01*
X1358Y201D02*
X1380Y201D01*
X1407Y201D02*
X1432Y201D01*
X1449Y201D02*
X1455Y201D01*
X1476Y201D02*
X1482Y201D01*
X1530Y201D02*
X1537Y201D01*
X0Y200D02*
X7Y200D01*
X135Y200D02*
X144Y200D01*
X735Y200D02*
X773Y200D01*
X1201Y200D02*
X1230Y200D01*
X1252Y200D02*
X1261Y200D01*
X1269Y200D02*
X1279Y200D01*
X1302Y200D02*
X1329Y200D01*
X1359Y200D02*
X1379Y200D01*
X1408Y200D02*
X1432Y200D01*
X1449Y200D02*
X1455Y200D01*
X1476Y200D02*
X1482Y200D01*
X1530Y200D02*
X1537Y200D01*
X0Y199D02*
X7Y199D01*
X135Y199D02*
X144Y199D01*
X735Y199D02*
X773Y199D01*
X1202Y199D02*
X1229Y199D01*
X1252Y199D02*
X1261Y199D01*
X1270Y199D02*
X1278Y199D01*
X1302Y199D02*
X1328Y199D01*
X1360Y199D02*
X1378Y199D01*
X1409Y199D02*
X1432Y199D01*
X1450Y199D02*
X1455Y199D01*
X1477Y199D02*
X1482Y199D01*
X1530Y199D02*
X1537Y199D01*
X0Y198D02*
X7Y198D01*
X135Y198D02*
X144Y198D01*
X735Y198D02*
X773Y198D01*
X1204Y198D02*
X1227Y198D01*
X1253Y198D02*
X1260Y198D01*
X1270Y198D02*
X1277Y198D01*
X1303Y198D02*
X1327Y198D01*
X1362Y198D02*
X1376Y198D01*
X1411Y198D02*
X1431Y198D01*
X1451Y198D02*
X1454Y198D01*
X1478Y198D02*
X1481Y198D01*
X1530Y198D02*
X1537Y198D01*
X0Y197D02*
X7Y197D01*
X135Y197D02*
X144Y197D01*
X736Y197D02*
X773Y197D01*
X1530Y197D02*
X1537Y197D01*
X0Y196D02*
X7Y196D01*
X135Y196D02*
X144Y196D01*
X738Y196D02*
X771Y196D01*
X1530Y196D02*
X1537Y196D01*
X0Y195D02*
X7Y195D01*
X135Y195D02*
X144Y195D01*
X1530Y195D02*
X1537Y195D01*
X0Y194D02*
X7Y194D01*
X135Y194D02*
X144Y194D01*
X1530Y194D02*
X1537Y194D01*
X0Y193D02*
X7Y193D01*
X135Y193D02*
X144Y193D01*
X1530Y193D02*
X1537Y193D01*
X0Y192D02*
X7Y192D01*
X135Y192D02*
X144Y192D01*
X1530Y192D02*
X1537Y192D01*
X0Y191D02*
X7Y191D01*
X135Y191D02*
X144Y191D01*
X1530Y191D02*
X1537Y191D01*
X0Y190D02*
X7Y190D01*
X135Y190D02*
X144Y190D01*
X1530Y190D02*
X1537Y190D01*
X0Y189D02*
X7Y189D01*
X135Y189D02*
X144Y189D01*
X1530Y189D02*
X1537Y189D01*
X0Y188D02*
X7Y188D01*
X135Y188D02*
X144Y188D01*
X1530Y188D02*
X1537Y188D01*
X0Y187D02*
X7Y187D01*
X135Y187D02*
X144Y187D01*
X1530Y187D02*
X1537Y187D01*
X0Y186D02*
X7Y186D01*
X135Y186D02*
X144Y186D01*
X1530Y186D02*
X1537Y186D01*
X0Y185D02*
X7Y185D01*
X135Y185D02*
X144Y185D01*
X1530Y185D02*
X1537Y185D01*
X0Y184D02*
X7Y184D01*
X135Y184D02*
X144Y184D01*
X1530Y184D02*
X1537Y184D01*
X0Y183D02*
X7Y183D01*
X135Y183D02*
X144Y183D01*
X1530Y183D02*
X1537Y183D01*
X0Y182D02*
X7Y182D01*
X135Y182D02*
X144Y182D01*
X1530Y182D02*
X1537Y182D01*
X0Y181D02*
X7Y181D01*
X135Y181D02*
X144Y181D01*
X1530Y181D02*
X1537Y181D01*
X0Y180D02*
X7Y180D01*
X135Y180D02*
X144Y180D01*
X721Y180D02*
X730Y180D01*
X1530Y180D02*
X1537Y180D01*
X0Y179D02*
X7Y179D01*
X135Y179D02*
X144Y179D01*
X720Y179D02*
X731Y179D01*
X1530Y179D02*
X1537Y179D01*
X0Y178D02*
X7Y178D01*
X135Y178D02*
X144Y178D01*
X720Y178D02*
X732Y178D01*
X1530Y178D02*
X1537Y178D01*
X0Y177D02*
X7Y177D01*
X135Y177D02*
X144Y177D01*
X720Y177D02*
X732Y177D01*
X1530Y177D02*
X1537Y177D01*
X0Y176D02*
X7Y176D01*
X135Y176D02*
X144Y176D01*
X720Y176D02*
X732Y176D01*
X1530Y176D02*
X1537Y176D01*
X0Y175D02*
X7Y175D01*
X135Y175D02*
X144Y175D01*
X720Y175D02*
X732Y175D01*
X1530Y175D02*
X1537Y175D01*
X0Y174D02*
X7Y174D01*
X135Y174D02*
X144Y174D01*
X720Y174D02*
X731Y174D01*
X1530Y174D02*
X1537Y174D01*
X0Y173D02*
X7Y173D01*
X135Y173D02*
X144Y173D01*
X720Y173D02*
X727Y173D01*
X1530Y173D02*
X1537Y173D01*
X0Y172D02*
X7Y172D01*
X135Y172D02*
X144Y172D01*
X720Y172D02*
X726Y172D01*
X1530Y172D02*
X1537Y172D01*
X0Y171D02*
X7Y171D01*
X135Y171D02*
X144Y171D01*
X720Y171D02*
X726Y171D01*
X1530Y171D02*
X1537Y171D01*
X0Y170D02*
X7Y170D01*
X135Y170D02*
X144Y170D01*
X720Y170D02*
X726Y170D01*
X1530Y170D02*
X1537Y170D01*
X0Y169D02*
X7Y169D01*
X135Y169D02*
X144Y169D01*
X720Y169D02*
X726Y169D01*
X1530Y169D02*
X1537Y169D01*
X0Y168D02*
X7Y168D01*
X135Y168D02*
X144Y168D01*
X720Y168D02*
X726Y168D01*
X1530Y168D02*
X1537Y168D01*
X0Y167D02*
X7Y167D01*
X135Y167D02*
X144Y167D01*
X720Y167D02*
X726Y167D01*
X1530Y167D02*
X1537Y167D01*
X0Y166D02*
X7Y166D01*
X135Y166D02*
X144Y166D01*
X720Y166D02*
X772Y166D01*
X1530Y166D02*
X1537Y166D01*
X0Y165D02*
X7Y165D01*
X135Y165D02*
X144Y165D01*
X720Y165D02*
X773Y165D01*
X1530Y165D02*
X1537Y165D01*
X0Y164D02*
X7Y164D01*
X135Y164D02*
X144Y164D01*
X720Y164D02*
X773Y164D01*
X1530Y164D02*
X1537Y164D01*
X0Y163D02*
X7Y163D01*
X135Y163D02*
X144Y163D01*
X720Y163D02*
X774Y163D01*
X1530Y163D02*
X1537Y163D01*
X0Y162D02*
X7Y162D01*
X135Y162D02*
X144Y162D01*
X720Y162D02*
X773Y162D01*
X1530Y162D02*
X1537Y162D01*
X0Y161D02*
X7Y161D01*
X135Y161D02*
X144Y161D01*
X720Y161D02*
X773Y161D01*
X1530Y161D02*
X1537Y161D01*
X0Y160D02*
X7Y160D01*
X135Y160D02*
X144Y160D01*
X720Y160D02*
X772Y160D01*
X1530Y160D02*
X1537Y160D01*
X0Y159D02*
X7Y159D01*
X720Y159D02*
X726Y159D01*
X1530Y159D02*
X1537Y159D01*
X0Y158D02*
X7Y158D01*
X720Y158D02*
X726Y158D01*
X1530Y158D02*
X1537Y158D01*
X0Y157D02*
X7Y157D01*
X720Y157D02*
X726Y157D01*
X1530Y157D02*
X1537Y157D01*
X0Y156D02*
X7Y156D01*
X720Y156D02*
X726Y156D01*
X1530Y156D02*
X1537Y156D01*
X0Y155D02*
X7Y155D01*
X720Y155D02*
X726Y155D01*
X1530Y155D02*
X1537Y155D01*
X0Y154D02*
X7Y154D01*
X720Y154D02*
X726Y154D01*
X1530Y154D02*
X1537Y154D01*
X0Y153D02*
X7Y153D01*
X720Y153D02*
X726Y153D01*
X1530Y153D02*
X1537Y153D01*
X0Y152D02*
X7Y152D01*
X720Y152D02*
X731Y152D01*
X1530Y152D02*
X1537Y152D01*
X0Y151D02*
X7Y151D01*
X720Y151D02*
X732Y151D01*
X1530Y151D02*
X1537Y151D01*
X0Y150D02*
X7Y150D01*
X720Y150D02*
X732Y150D01*
X1530Y150D02*
X1537Y150D01*
X0Y149D02*
X7Y149D01*
X720Y149D02*
X732Y149D01*
X1530Y149D02*
X1537Y149D01*
X0Y148D02*
X7Y148D01*
X720Y148D02*
X732Y148D01*
X1530Y148D02*
X1537Y148D01*
X0Y147D02*
X7Y147D01*
X720Y147D02*
X732Y147D01*
X1530Y147D02*
X1537Y147D01*
X0Y146D02*
X7Y146D01*
X720Y146D02*
X730Y146D01*
X1530Y146D02*
X1537Y146D01*
X0Y145D02*
X7Y145D01*
X1530Y145D02*
X1537Y145D01*
X0Y144D02*
X7Y144D01*
X1114Y144D02*
X1137Y144D01*
X1167Y144D02*
X1191Y144D01*
X1530Y144D02*
X1537Y144D01*
X0Y143D02*
X7Y143D01*
X1113Y143D02*
X1141Y143D01*
X1165Y143D02*
X1194Y143D01*
X1530Y143D02*
X1537Y143D01*
X0Y142D02*
X7Y142D01*
X1113Y142D02*
X1143Y142D01*
X1164Y142D02*
X1195Y142D01*
X1530Y142D02*
X1537Y142D01*
X0Y141D02*
X7Y141D01*
X1113Y141D02*
X1144Y141D01*
X1164Y141D02*
X1196Y141D01*
X1530Y141D02*
X1537Y141D01*
X0Y140D02*
X7Y140D01*
X1113Y140D02*
X1145Y140D01*
X1164Y140D02*
X1197Y140D01*
X1530Y140D02*
X1537Y140D01*
X0Y139D02*
X7Y139D01*
X1113Y139D02*
X1145Y139D01*
X1164Y139D02*
X1197Y139D01*
X1530Y139D02*
X1537Y139D01*
X0Y138D02*
X7Y138D01*
X1113Y138D02*
X1146Y138D01*
X1165Y138D02*
X1197Y138D01*
X1530Y138D02*
X1537Y138D01*
X0Y137D02*
X7Y137D01*
X1113Y137D02*
X1120Y137D01*
X1137Y137D02*
X1146Y137D01*
X1191Y137D02*
X1197Y137D01*
X1530Y137D02*
X1537Y137D01*
X0Y136D02*
X7Y136D01*
X1113Y136D02*
X1119Y136D01*
X1140Y136D02*
X1147Y136D01*
X1191Y136D02*
X1197Y136D01*
X1530Y136D02*
X1537Y136D01*
X0Y135D02*
X7Y135D01*
X1113Y135D02*
X1119Y135D01*
X1141Y135D02*
X1147Y135D01*
X1191Y135D02*
X1197Y135D01*
X1530Y135D02*
X1537Y135D01*
X0Y134D02*
X7Y134D01*
X1113Y134D02*
X1119Y134D01*
X1141Y134D02*
X1147Y134D01*
X1191Y134D02*
X1197Y134D01*
X1530Y134D02*
X1537Y134D01*
X0Y133D02*
X7Y133D01*
X1113Y133D02*
X1119Y133D01*
X1141Y133D02*
X1147Y133D01*
X1191Y133D02*
X1197Y133D01*
X1530Y133D02*
X1537Y133D01*
X0Y132D02*
X7Y132D01*
X1113Y132D02*
X1119Y132D01*
X1141Y132D02*
X1147Y132D01*
X1191Y132D02*
X1197Y132D01*
X1530Y132D02*
X1537Y132D01*
X0Y131D02*
X7Y131D01*
X1113Y131D02*
X1119Y131D01*
X1141Y131D02*
X1147Y131D01*
X1191Y131D02*
X1197Y131D01*
X1530Y131D02*
X1537Y131D01*
X0Y130D02*
X7Y130D01*
X1113Y130D02*
X1119Y130D01*
X1141Y130D02*
X1147Y130D01*
X1191Y130D02*
X1197Y130D01*
X1530Y130D02*
X1537Y130D01*
X0Y129D02*
X7Y129D01*
X1113Y129D02*
X1119Y129D01*
X1141Y129D02*
X1147Y129D01*
X1191Y129D02*
X1197Y129D01*
X1530Y129D02*
X1537Y129D01*
X0Y128D02*
X7Y128D01*
X1113Y128D02*
X1119Y128D01*
X1140Y128D02*
X1147Y128D01*
X1191Y128D02*
X1197Y128D01*
X1530Y128D02*
X1537Y128D01*
X0Y127D02*
X7Y127D01*
X1113Y127D02*
X1119Y127D01*
X1139Y127D02*
X1147Y127D01*
X1191Y127D02*
X1197Y127D01*
X1530Y127D02*
X1537Y127D01*
X0Y126D02*
X7Y126D01*
X1113Y126D02*
X1146Y126D01*
X1191Y126D02*
X1197Y126D01*
X1530Y126D02*
X1537Y126D01*
X0Y125D02*
X7Y125D01*
X1113Y125D02*
X1146Y125D01*
X1191Y125D02*
X1197Y125D01*
X1530Y125D02*
X1537Y125D01*
X0Y124D02*
X7Y124D01*
X1113Y124D02*
X1145Y124D01*
X1191Y124D02*
X1197Y124D01*
X1530Y124D02*
X1537Y124D01*
X0Y123D02*
X7Y123D01*
X1113Y123D02*
X1144Y123D01*
X1191Y123D02*
X1197Y123D01*
X1530Y123D02*
X1537Y123D01*
X0Y122D02*
X7Y122D01*
X982Y122D02*
X1048Y122D01*
X1113Y122D02*
X1143Y122D01*
X1191Y122D02*
X1197Y122D01*
X1249Y122D02*
X1297Y122D01*
X1530Y122D02*
X1537Y122D01*
X0Y121D02*
X7Y121D01*
X982Y121D02*
X1048Y121D01*
X1113Y121D02*
X1142Y121D01*
X1191Y121D02*
X1197Y121D01*
X1249Y121D02*
X1297Y121D01*
X1530Y121D02*
X1537Y121D01*
X0Y120D02*
X7Y120D01*
X982Y120D02*
X1048Y120D01*
X1113Y120D02*
X1140Y120D01*
X1168Y120D02*
X1197Y120D01*
X1249Y120D02*
X1297Y120D01*
X1530Y120D02*
X1537Y120D01*
X0Y119D02*
X7Y119D01*
X982Y119D02*
X1048Y119D01*
X1113Y119D02*
X1120Y119D01*
X1125Y119D02*
X1133Y119D01*
X1166Y119D02*
X1197Y119D01*
X1249Y119D02*
X1296Y119D01*
X1530Y119D02*
X1537Y119D01*
X0Y118D02*
X7Y118D01*
X982Y118D02*
X1048Y118D01*
X1113Y118D02*
X1119Y118D01*
X1126Y118D02*
X1133Y118D01*
X1165Y118D02*
X1197Y118D01*
X1249Y118D02*
X1296Y118D01*
X1530Y118D02*
X1537Y118D01*
X0Y117D02*
X7Y117D01*
X982Y117D02*
X1048Y117D01*
X1113Y117D02*
X1119Y117D01*
X1127Y117D02*
X1134Y117D01*
X1165Y117D02*
X1196Y117D01*
X1249Y117D02*
X1296Y117D01*
X1530Y117D02*
X1537Y117D01*
X0Y116D02*
X7Y116D01*
X982Y116D02*
X1048Y116D01*
X1113Y116D02*
X1119Y116D01*
X1127Y116D02*
X1134Y116D01*
X1164Y116D02*
X1196Y116D01*
X1249Y116D02*
X1296Y116D01*
X1530Y116D02*
X1537Y116D01*
X0Y115D02*
X7Y115D01*
X982Y115D02*
X1048Y115D01*
X1113Y115D02*
X1119Y115D01*
X1128Y115D02*
X1135Y115D01*
X1164Y115D02*
X1194Y115D01*
X1249Y115D02*
X1297Y115D01*
X1530Y115D02*
X1537Y115D01*
X0Y114D02*
X7Y114D01*
X982Y114D02*
X1048Y114D01*
X1113Y114D02*
X1119Y114D01*
X1128Y114D02*
X1136Y114D01*
X1164Y114D02*
X1193Y114D01*
X1249Y114D02*
X1297Y114D01*
X1530Y114D02*
X1537Y114D01*
X0Y113D02*
X7Y113D01*
X982Y113D02*
X1048Y113D01*
X1113Y113D02*
X1119Y113D01*
X1129Y113D02*
X1136Y113D01*
X1164Y113D02*
X1170Y113D01*
X1249Y113D02*
X1297Y113D01*
X1530Y113D02*
X1537Y113D01*
X0Y112D02*
X7Y112D01*
X1113Y112D02*
X1119Y112D01*
X1130Y112D02*
X1137Y112D01*
X1164Y112D02*
X1170Y112D01*
X1530Y112D02*
X1537Y112D01*
X0Y111D02*
X7Y111D01*
X1113Y111D02*
X1119Y111D01*
X1130Y111D02*
X1137Y111D01*
X1164Y111D02*
X1170Y111D01*
X1530Y111D02*
X1537Y111D01*
X0Y110D02*
X7Y110D01*
X1113Y110D02*
X1119Y110D01*
X1131Y110D02*
X1138Y110D01*
X1164Y110D02*
X1170Y110D01*
X1530Y110D02*
X1537Y110D01*
X0Y109D02*
X7Y109D01*
X1113Y109D02*
X1119Y109D01*
X1131Y109D02*
X1138Y109D01*
X1164Y109D02*
X1170Y109D01*
X1530Y109D02*
X1537Y109D01*
X0Y108D02*
X7Y108D01*
X1113Y108D02*
X1119Y108D01*
X1132Y108D02*
X1139Y108D01*
X1164Y108D02*
X1170Y108D01*
X1530Y108D02*
X1537Y108D01*
X0Y107D02*
X7Y107D01*
X1113Y107D02*
X1119Y107D01*
X1132Y107D02*
X1140Y107D01*
X1164Y107D02*
X1170Y107D01*
X1530Y107D02*
X1537Y107D01*
X0Y106D02*
X7Y106D01*
X1113Y106D02*
X1119Y106D01*
X1133Y106D02*
X1140Y106D01*
X1164Y106D02*
X1170Y106D01*
X1530Y106D02*
X1537Y106D01*
X0Y105D02*
X7Y105D01*
X1113Y105D02*
X1119Y105D01*
X1134Y105D02*
X1141Y105D01*
X1164Y105D02*
X1170Y105D01*
X1530Y105D02*
X1537Y105D01*
X0Y104D02*
X7Y104D01*
X1113Y104D02*
X1119Y104D01*
X1134Y104D02*
X1141Y104D01*
X1164Y104D02*
X1170Y104D01*
X1530Y104D02*
X1537Y104D01*
X0Y103D02*
X7Y103D01*
X1113Y103D02*
X1119Y103D01*
X1135Y103D02*
X1142Y103D01*
X1164Y103D02*
X1170Y103D01*
X1530Y103D02*
X1537Y103D01*
X0Y102D02*
X7Y102D01*
X1113Y102D02*
X1119Y102D01*
X1135Y102D02*
X1143Y102D01*
X1164Y102D02*
X1170Y102D01*
X1530Y102D02*
X1537Y102D01*
X0Y101D02*
X7Y101D01*
X1113Y101D02*
X1119Y101D01*
X1136Y101D02*
X1143Y101D01*
X1164Y101D02*
X1170Y101D01*
X1530Y101D02*
X1537Y101D01*
X0Y100D02*
X7Y100D01*
X1113Y100D02*
X1119Y100D01*
X1137Y100D02*
X1144Y100D01*
X1164Y100D02*
X1170Y100D01*
X1530Y100D02*
X1537Y100D01*
X0Y99D02*
X7Y99D01*
X1113Y99D02*
X1119Y99D01*
X1137Y99D02*
X1144Y99D01*
X1164Y99D02*
X1170Y99D01*
X1530Y99D02*
X1537Y99D01*
X0Y98D02*
X7Y98D01*
X1113Y98D02*
X1119Y98D01*
X1138Y98D02*
X1145Y98D01*
X1164Y98D02*
X1170Y98D01*
X1530Y98D02*
X1537Y98D01*
X0Y97D02*
X7Y97D01*
X1113Y97D02*
X1119Y97D01*
X1138Y97D02*
X1145Y97D01*
X1164Y97D02*
X1170Y97D01*
X1530Y97D02*
X1537Y97D01*
X0Y96D02*
X7Y96D01*
X1113Y96D02*
X1119Y96D01*
X1139Y96D02*
X1146Y96D01*
X1164Y96D02*
X1196Y96D01*
X1530Y96D02*
X1537Y96D01*
X0Y95D02*
X7Y95D01*
X1113Y95D02*
X1119Y95D01*
X1139Y95D02*
X1147Y95D01*
X1164Y95D02*
X1197Y95D01*
X1530Y95D02*
X1537Y95D01*
X0Y94D02*
X7Y94D01*
X1113Y94D02*
X1119Y94D01*
X1140Y94D02*
X1147Y94D01*
X1164Y94D02*
X1197Y94D01*
X1530Y94D02*
X1537Y94D01*
X0Y93D02*
X7Y93D01*
X1114Y93D02*
X1119Y93D01*
X1141Y93D02*
X1147Y93D01*
X1164Y93D02*
X1197Y93D01*
X1530Y93D02*
X1537Y93D01*
X0Y92D02*
X7Y92D01*
X1114Y92D02*
X1119Y92D01*
X1141Y92D02*
X1147Y92D01*
X1164Y92D02*
X1197Y92D01*
X1530Y92D02*
X1537Y92D01*
X0Y91D02*
X7Y91D01*
X1114Y91D02*
X1118Y91D01*
X1142Y91D02*
X1146Y91D01*
X1164Y91D02*
X1196Y91D01*
X1530Y91D02*
X1537Y91D01*
X0Y90D02*
X7Y90D01*
X1116Y90D02*
X1117Y90D01*
X1144Y90D02*
X1144Y90D01*
X1164Y90D02*
X1194Y90D01*
X1530Y90D02*
X1537Y90D01*
X0Y89D02*
X7Y89D01*
X1530Y89D02*
X1537Y89D01*
X0Y88D02*
X7Y88D01*
X1530Y88D02*
X1537Y88D01*
X0Y87D02*
X7Y87D01*
X1530Y87D02*
X1537Y87D01*
X0Y86D02*
X7Y86D01*
X1530Y86D02*
X1537Y86D01*
X0Y85D02*
X7Y85D01*
X292Y85D02*
X300Y85D01*
X318Y85D02*
X326Y85D01*
X460Y85D02*
X473Y85D01*
X1530Y85D02*
X1537Y85D01*
X0Y84D02*
X7Y84D01*
X292Y84D02*
X301Y84D01*
X317Y84D02*
X326Y84D01*
X458Y84D02*
X474Y84D01*
X1530Y84D02*
X1537Y84D01*
X0Y83D02*
X7Y83D01*
X292Y83D02*
X302Y83D01*
X316Y83D02*
X326Y83D01*
X456Y83D02*
X474Y83D01*
X1530Y83D02*
X1537Y83D01*
X0Y82D02*
X7Y82D01*
X292Y82D02*
X302Y82D01*
X315Y82D02*
X326Y82D01*
X455Y82D02*
X474Y82D01*
X552Y82D02*
X554Y82D01*
X1530Y82D02*
X1537Y82D01*
X0Y81D02*
X7Y81D01*
X292Y81D02*
X303Y81D01*
X315Y81D02*
X326Y81D01*
X454Y81D02*
X474Y81D01*
X551Y81D02*
X555Y81D01*
X1530Y81D02*
X1537Y81D01*
X0Y80D02*
X7Y80D01*
X292Y80D02*
X304Y80D01*
X314Y80D02*
X326Y80D01*
X453Y80D02*
X474Y80D01*
X550Y80D02*
X556Y80D01*
X1530Y80D02*
X1537Y80D01*
X0Y79D02*
X7Y79D01*
X292Y79D02*
X304Y79D01*
X313Y79D02*
X326Y79D01*
X453Y79D02*
X473Y79D01*
X550Y79D02*
X556Y79D01*
X1530Y79D02*
X1537Y79D01*
X0Y78D02*
X7Y78D01*
X292Y78D02*
X305Y78D01*
X313Y78D02*
X326Y78D01*
X452Y78D02*
X461Y78D01*
X550Y78D02*
X556Y78D01*
X1530Y78D02*
X1537Y78D01*
X0Y77D02*
X7Y77D01*
X292Y77D02*
X306Y77D01*
X312Y77D02*
X326Y77D01*
X452Y77D02*
X459Y77D01*
X550Y77D02*
X556Y77D01*
X1530Y77D02*
X1537Y77D01*
X0Y76D02*
X7Y76D01*
X292Y76D02*
X307Y76D01*
X311Y76D02*
X326Y76D01*
X452Y76D02*
X458Y76D01*
X550Y76D02*
X556Y76D01*
X1530Y76D02*
X1537Y76D01*
X0Y75D02*
X7Y75D01*
X292Y75D02*
X307Y75D01*
X311Y75D02*
X318Y75D01*
X320Y75D02*
X326Y75D01*
X451Y75D02*
X458Y75D01*
X550Y75D02*
X556Y75D01*
X1530Y75D02*
X1537Y75D01*
X0Y74D02*
X7Y74D01*
X292Y74D02*
X298Y74D01*
X300Y74D02*
X308Y74D01*
X310Y74D02*
X317Y74D01*
X320Y74D02*
X326Y74D01*
X451Y74D02*
X457Y74D01*
X550Y74D02*
X556Y74D01*
X1530Y74D02*
X1537Y74D01*
X0Y73D02*
X7Y73D01*
X292Y73D02*
X298Y73D01*
X301Y73D02*
X317Y73D01*
X320Y73D02*
X326Y73D01*
X451Y73D02*
X457Y73D01*
X550Y73D02*
X556Y73D01*
X1530Y73D02*
X1537Y73D01*
X0Y72D02*
X7Y72D01*
X292Y72D02*
X298Y72D01*
X302Y72D02*
X316Y72D01*
X320Y72D02*
X326Y72D01*
X451Y72D02*
X457Y72D01*
X550Y72D02*
X556Y72D01*
X1530Y72D02*
X1537Y72D01*
X0Y71D02*
X7Y71D01*
X292Y71D02*
X298Y71D01*
X302Y71D02*
X315Y71D01*
X320Y71D02*
X326Y71D01*
X451Y71D02*
X457Y71D01*
X550Y71D02*
X556Y71D01*
X1530Y71D02*
X1537Y71D01*
X0Y70D02*
X7Y70D01*
X292Y70D02*
X298Y70D01*
X303Y70D02*
X315Y70D01*
X320Y70D02*
X326Y70D01*
X351Y70D02*
X367Y70D01*
X399Y70D02*
X420Y70D01*
X446Y70D02*
X466Y70D01*
X502Y70D02*
X517Y70D01*
X545Y70D02*
X572Y70D01*
X1530Y70D02*
X1537Y70D01*
X0Y69D02*
X7Y69D01*
X292Y69D02*
X298Y69D01*
X304Y69D02*
X314Y69D01*
X320Y69D02*
X326Y69D01*
X349Y69D02*
X369Y69D01*
X397Y69D02*
X422Y69D01*
X445Y69D02*
X467Y69D01*
X500Y69D02*
X519Y69D01*
X544Y69D02*
X573Y69D01*
X1530Y69D02*
X1537Y69D01*
X0Y68D02*
X7Y68D01*
X292Y68D02*
X298Y68D01*
X305Y68D02*
X313Y68D01*
X320Y68D02*
X326Y68D01*
X348Y68D02*
X370Y68D01*
X396Y68D02*
X423Y68D01*
X445Y68D02*
X467Y68D01*
X499Y68D02*
X521Y68D01*
X543Y68D02*
X573Y68D01*
X1530Y68D02*
X1537Y68D01*
X0Y67D02*
X7Y67D01*
X292Y67D02*
X298Y67D01*
X305Y67D02*
X312Y67D01*
X320Y67D02*
X326Y67D01*
X347Y67D02*
X371Y67D01*
X395Y67D02*
X424Y67D01*
X444Y67D02*
X468Y67D01*
X498Y67D02*
X522Y67D01*
X543Y67D02*
X573Y67D01*
X1530Y67D02*
X1537Y67D01*
X0Y66D02*
X7Y66D01*
X292Y66D02*
X298Y66D01*
X306Y66D02*
X312Y66D01*
X320Y66D02*
X326Y66D01*
X346Y66D02*
X372Y66D01*
X394Y66D02*
X425Y66D01*
X445Y66D02*
X467Y66D01*
X496Y66D02*
X523Y66D01*
X543Y66D02*
X573Y66D01*
X1530Y66D02*
X1537Y66D01*
X0Y65D02*
X7Y65D01*
X292Y65D02*
X298Y65D01*
X306Y65D02*
X312Y65D01*
X320Y65D02*
X326Y65D01*
X345Y65D02*
X373Y65D01*
X394Y65D02*
X425Y65D01*
X445Y65D02*
X467Y65D01*
X496Y65D02*
X524Y65D01*
X544Y65D02*
X572Y65D01*
X1530Y65D02*
X1537Y65D01*
X0Y64D02*
X7Y64D01*
X292Y64D02*
X298Y64D01*
X306Y64D02*
X312Y64D01*
X320Y64D02*
X326Y64D01*
X344Y64D02*
X374Y64D01*
X394Y64D02*
X425Y64D01*
X447Y64D02*
X465Y64D01*
X495Y64D02*
X525Y64D01*
X545Y64D02*
X571Y64D01*
X1530Y64D02*
X1537Y64D01*
X0Y63D02*
X7Y63D01*
X292Y63D02*
X298Y63D01*
X306Y63D02*
X312Y63D01*
X320Y63D02*
X326Y63D01*
X344Y63D02*
X352Y63D01*
X366Y63D02*
X375Y63D01*
X393Y63D02*
X400Y63D01*
X419Y63D02*
X425Y63D01*
X451Y63D02*
X457Y63D01*
X494Y63D02*
X503Y63D01*
X517Y63D02*
X525Y63D01*
X550Y63D02*
X556Y63D01*
X1530Y63D02*
X1537Y63D01*
X0Y62D02*
X7Y62D01*
X292Y62D02*
X298Y62D01*
X307Y62D02*
X311Y62D01*
X320Y62D02*
X326Y62D01*
X343Y62D02*
X351Y62D01*
X368Y62D02*
X375Y62D01*
X393Y62D02*
X399Y62D01*
X420Y62D02*
X424Y62D01*
X451Y62D02*
X457Y62D01*
X494Y62D02*
X501Y62D01*
X518Y62D02*
X526Y62D01*
X550Y62D02*
X556Y62D01*
X1530Y62D02*
X1537Y62D01*
X0Y61D02*
X7Y61D01*
X292Y61D02*
X298Y61D01*
X308Y61D02*
X309Y61D01*
X320Y61D02*
X326Y61D01*
X343Y61D02*
X350Y61D01*
X369Y61D02*
X375Y61D01*
X393Y61D02*
X400Y61D01*
X422Y61D02*
X423Y61D01*
X451Y61D02*
X457Y61D01*
X493Y61D02*
X500Y61D01*
X519Y61D02*
X526Y61D01*
X550Y61D02*
X556Y61D01*
X1530Y61D02*
X1537Y61D01*
X0Y60D02*
X7Y60D01*
X292Y60D02*
X298Y60D01*
X320Y60D02*
X326Y60D01*
X343Y60D02*
X349Y60D01*
X369Y60D02*
X376Y60D01*
X394Y60D02*
X401Y60D01*
X451Y60D02*
X457Y60D01*
X493Y60D02*
X500Y60D01*
X520Y60D02*
X526Y60D01*
X550Y60D02*
X556Y60D01*
X1530Y60D02*
X1537Y60D01*
X0Y59D02*
X7Y59D01*
X292Y59D02*
X298Y59D01*
X320Y59D02*
X326Y59D01*
X342Y59D02*
X348Y59D01*
X370Y59D02*
X376Y59D01*
X394Y59D02*
X403Y59D01*
X451Y59D02*
X457Y59D01*
X493Y59D02*
X499Y59D01*
X520Y59D02*
X526Y59D01*
X550Y59D02*
X556Y59D01*
X1530Y59D02*
X1537Y59D01*
X0Y58D02*
X7Y58D01*
X292Y58D02*
X298Y58D01*
X320Y58D02*
X326Y58D01*
X342Y58D02*
X348Y58D01*
X370Y58D02*
X376Y58D01*
X394Y58D02*
X405Y58D01*
X451Y58D02*
X457Y58D01*
X493Y58D02*
X499Y58D01*
X520Y58D02*
X526Y58D01*
X550Y58D02*
X556Y58D01*
X1530Y58D02*
X1537Y58D01*
X0Y57D02*
X7Y57D01*
X292Y57D02*
X298Y57D01*
X320Y57D02*
X326Y57D01*
X342Y57D02*
X348Y57D01*
X370Y57D02*
X376Y57D01*
X395Y57D02*
X407Y57D01*
X451Y57D02*
X457Y57D01*
X493Y57D02*
X499Y57D01*
X520Y57D02*
X526Y57D01*
X550Y57D02*
X556Y57D01*
X1530Y57D02*
X1537Y57D01*
X0Y56D02*
X7Y56D01*
X292Y56D02*
X298Y56D01*
X320Y56D02*
X326Y56D01*
X342Y56D02*
X348Y56D01*
X370Y56D02*
X376Y56D01*
X396Y56D02*
X410Y56D01*
X451Y56D02*
X457Y56D01*
X493Y56D02*
X499Y56D01*
X520Y56D02*
X526Y56D01*
X550Y56D02*
X556Y56D01*
X1530Y56D02*
X1537Y56D01*
X0Y55D02*
X7Y55D01*
X292Y55D02*
X298Y55D01*
X320Y55D02*
X326Y55D01*
X342Y55D02*
X348Y55D01*
X370Y55D02*
X376Y55D01*
X397Y55D02*
X412Y55D01*
X451Y55D02*
X457Y55D01*
X493Y55D02*
X499Y55D01*
X520Y55D02*
X526Y55D01*
X550Y55D02*
X556Y55D01*
X1530Y55D02*
X1537Y55D01*
X0Y54D02*
X7Y54D01*
X292Y54D02*
X298Y54D01*
X320Y54D02*
X326Y54D01*
X342Y54D02*
X348Y54D01*
X370Y54D02*
X376Y54D01*
X398Y54D02*
X414Y54D01*
X451Y54D02*
X457Y54D01*
X493Y54D02*
X499Y54D01*
X520Y54D02*
X526Y54D01*
X550Y54D02*
X556Y54D01*
X1530Y54D02*
X1537Y54D01*
X0Y53D02*
X7Y53D01*
X292Y53D02*
X298Y53D01*
X320Y53D02*
X326Y53D01*
X342Y53D02*
X348Y53D01*
X370Y53D02*
X376Y53D01*
X400Y53D02*
X417Y53D01*
X451Y53D02*
X457Y53D01*
X493Y53D02*
X526Y53D01*
X550Y53D02*
X556Y53D01*
X1530Y53D02*
X1537Y53D01*
X0Y52D02*
X7Y52D01*
X292Y52D02*
X298Y52D01*
X320Y52D02*
X326Y52D01*
X342Y52D02*
X348Y52D01*
X370Y52D02*
X376Y52D01*
X402Y52D02*
X419Y52D01*
X451Y52D02*
X457Y52D01*
X493Y52D02*
X526Y52D01*
X550Y52D02*
X556Y52D01*
X1530Y52D02*
X1537Y52D01*
X0Y51D02*
X7Y51D01*
X292Y51D02*
X298Y51D01*
X320Y51D02*
X326Y51D01*
X342Y51D02*
X348Y51D01*
X370Y51D02*
X376Y51D01*
X405Y51D02*
X421Y51D01*
X451Y51D02*
X457Y51D01*
X493Y51D02*
X526Y51D01*
X550Y51D02*
X556Y51D01*
X1530Y51D02*
X1537Y51D01*
X0Y50D02*
X7Y50D01*
X292Y50D02*
X298Y50D01*
X320Y50D02*
X326Y50D01*
X342Y50D02*
X348Y50D01*
X370Y50D02*
X376Y50D01*
X407Y50D02*
X422Y50D01*
X451Y50D02*
X457Y50D01*
X493Y50D02*
X526Y50D01*
X550Y50D02*
X556Y50D01*
X1530Y50D02*
X1537Y50D01*
X0Y49D02*
X7Y49D01*
X292Y49D02*
X298Y49D01*
X320Y49D02*
X326Y49D01*
X342Y49D02*
X348Y49D01*
X370Y49D02*
X376Y49D01*
X409Y49D02*
X423Y49D01*
X451Y49D02*
X457Y49D01*
X493Y49D02*
X526Y49D01*
X550Y49D02*
X556Y49D01*
X1530Y49D02*
X1537Y49D01*
X0Y48D02*
X7Y48D01*
X292Y48D02*
X298Y48D01*
X320Y48D02*
X326Y48D01*
X342Y48D02*
X348Y48D01*
X370Y48D02*
X376Y48D01*
X412Y48D02*
X424Y48D01*
X451Y48D02*
X457Y48D01*
X493Y48D02*
X526Y48D01*
X550Y48D02*
X556Y48D01*
X1530Y48D02*
X1537Y48D01*
X0Y47D02*
X7Y47D01*
X292Y47D02*
X298Y47D01*
X320Y47D02*
X326Y47D01*
X342Y47D02*
X348Y47D01*
X370Y47D02*
X376Y47D01*
X414Y47D02*
X425Y47D01*
X451Y47D02*
X457Y47D01*
X493Y47D02*
X525Y47D01*
X550Y47D02*
X556Y47D01*
X1530Y47D02*
X1537Y47D01*
X0Y46D02*
X7Y46D01*
X292Y46D02*
X298Y46D01*
X320Y46D02*
X326Y46D01*
X342Y46D02*
X348Y46D01*
X370Y46D02*
X376Y46D01*
X416Y46D02*
X425Y46D01*
X451Y46D02*
X457Y46D01*
X493Y46D02*
X499Y46D01*
X550Y46D02*
X556Y46D01*
X1530Y46D02*
X1537Y46D01*
X0Y45D02*
X7Y45D01*
X292Y45D02*
X298Y45D01*
X320Y45D02*
X326Y45D01*
X342Y45D02*
X348Y45D01*
X370Y45D02*
X376Y45D01*
X418Y45D02*
X425Y45D01*
X451Y45D02*
X457Y45D01*
X493Y45D02*
X499Y45D01*
X550Y45D02*
X556Y45D01*
X1530Y45D02*
X1537Y45D01*
X0Y44D02*
X7Y44D01*
X292Y44D02*
X298Y44D01*
X320Y44D02*
X326Y44D01*
X342Y44D02*
X348Y44D01*
X370Y44D02*
X376Y44D01*
X419Y44D02*
X426Y44D01*
X451Y44D02*
X457Y44D01*
X493Y44D02*
X499Y44D01*
X550Y44D02*
X556Y44D01*
X573Y44D02*
X574Y44D01*
X1530Y44D02*
X1537Y44D01*
X0Y43D02*
X7Y43D01*
X292Y43D02*
X298Y43D01*
X320Y43D02*
X326Y43D01*
X342Y43D02*
X349Y43D01*
X370Y43D02*
X376Y43D01*
X420Y43D02*
X426Y43D01*
X451Y43D02*
X457Y43D01*
X493Y43D02*
X499Y43D01*
X550Y43D02*
X556Y43D01*
X572Y43D02*
X576Y43D01*
X1530Y43D02*
X1537Y43D01*
X0Y42D02*
X7Y42D01*
X292Y42D02*
X298Y42D01*
X320Y42D02*
X326Y42D01*
X342Y42D02*
X349Y42D01*
X369Y42D02*
X376Y42D01*
X420Y42D02*
X426Y42D01*
X451Y42D02*
X457Y42D01*
X493Y42D02*
X500Y42D01*
X550Y42D02*
X556Y42D01*
X571Y42D02*
X576Y42D01*
X1530Y42D02*
X1537Y42D01*
X0Y41D02*
X7Y41D01*
X292Y41D02*
X298Y41D01*
X320Y41D02*
X326Y41D01*
X343Y41D02*
X350Y41D01*
X368Y41D02*
X375Y41D01*
X395Y41D02*
X396Y41D01*
X420Y41D02*
X426Y41D01*
X451Y41D02*
X457Y41D01*
X493Y41D02*
X500Y41D01*
X550Y41D02*
X556Y41D01*
X571Y41D02*
X577Y41D01*
X1530Y41D02*
X1537Y41D01*
X0Y40D02*
X7Y40D01*
X292Y40D02*
X298Y40D01*
X320Y40D02*
X326Y40D01*
X343Y40D02*
X351Y40D01*
X367Y40D02*
X375Y40D01*
X393Y40D02*
X398Y40D01*
X419Y40D02*
X426Y40D01*
X451Y40D02*
X457Y40D01*
X494Y40D02*
X502Y40D01*
X550Y40D02*
X557Y40D01*
X570Y40D02*
X577Y40D01*
X1530Y40D02*
X1537Y40D01*
X0Y39D02*
X7Y39D01*
X292Y39D02*
X298Y39D01*
X320Y39D02*
X326Y39D01*
X343Y39D02*
X352Y39D01*
X366Y39D02*
X375Y39D01*
X393Y39D02*
X400Y39D01*
X418Y39D02*
X426Y39D01*
X451Y39D02*
X457Y39D01*
X494Y39D02*
X503Y39D01*
X550Y39D02*
X557Y39D01*
X569Y39D02*
X576Y39D01*
X1530Y39D02*
X1537Y39D01*
X0Y38D02*
X7Y38D01*
X292Y38D02*
X298Y38D01*
X320Y38D02*
X326Y38D01*
X344Y38D02*
X374Y38D01*
X393Y38D02*
X425Y38D01*
X451Y38D02*
X457Y38D01*
X495Y38D02*
X524Y38D01*
X551Y38D02*
X576Y38D01*
X1530Y38D02*
X1537Y38D01*
X0Y37D02*
X7Y37D01*
X292Y37D02*
X298Y37D01*
X320Y37D02*
X326Y37D01*
X345Y37D02*
X373Y37D01*
X393Y37D02*
X425Y37D01*
X451Y37D02*
X457Y37D01*
X495Y37D02*
X526Y37D01*
X551Y37D02*
X576Y37D01*
X1530Y37D02*
X1537Y37D01*
X0Y36D02*
X7Y36D01*
X292Y36D02*
X298Y36D01*
X320Y36D02*
X326Y36D01*
X346Y36D02*
X372Y36D01*
X393Y36D02*
X424Y36D01*
X451Y36D02*
X457Y36D01*
X496Y36D02*
X526Y36D01*
X552Y36D02*
X575Y36D01*
X1530Y36D02*
X1537Y36D01*
X0Y35D02*
X7Y35D01*
X292Y35D02*
X298Y35D01*
X320Y35D02*
X326Y35D01*
X347Y35D02*
X371Y35D01*
X394Y35D02*
X423Y35D01*
X451Y35D02*
X457Y35D01*
X498Y35D02*
X526Y35D01*
X553Y35D02*
X574Y35D01*
X1530Y35D02*
X1537Y35D01*
X0Y34D02*
X7Y34D01*
X292Y34D02*
X298Y34D01*
X320Y34D02*
X326Y34D01*
X348Y34D02*
X370Y34D01*
X395Y34D02*
X422Y34D01*
X451Y34D02*
X457Y34D01*
X499Y34D02*
X526Y34D01*
X554Y34D02*
X573Y34D01*
X1530Y34D02*
X1537Y34D01*
X0Y33D02*
X7Y33D01*
X293Y33D02*
X298Y33D01*
X320Y33D02*
X325Y33D01*
X350Y33D02*
X369Y33D01*
X397Y33D02*
X421Y33D01*
X452Y33D02*
X457Y33D01*
X500Y33D02*
X526Y33D01*
X555Y33D02*
X572Y33D01*
X1530Y33D02*
X1537Y33D01*
X0Y32D02*
X7Y32D01*
X294Y32D02*
X297Y32D01*
X321Y32D02*
X324Y32D01*
X352Y32D02*
X367Y32D01*
X399Y32D02*
X419Y32D01*
X453Y32D02*
X456Y32D01*
X502Y32D02*
X525Y32D01*
X557Y32D02*
X570Y32D01*
X1530Y32D02*
X1537Y32D01*
X0Y31D02*
X7Y31D01*
X1530Y31D02*
X1537Y31D01*
X0Y30D02*
X7Y30D01*
X1530Y30D02*
X1537Y30D01*
X0Y29D02*
X7Y29D01*
X1530Y29D02*
X1537Y29D01*
X0Y28D02*
X7Y28D01*
X1530Y28D02*
X1537Y28D01*
X0Y27D02*
X7Y27D01*
X1530Y27D02*
X1537Y27D01*
X0Y26D02*
X7Y26D01*
X1530Y26D02*
X1537Y26D01*
X0Y25D02*
X7Y25D01*
X1530Y25D02*
X1537Y25D01*
X0Y24D02*
X7Y24D01*
X1530Y24D02*
X1537Y24D01*
X0Y23D02*
X7Y23D01*
X1530Y23D02*
X1537Y23D01*
X0Y22D02*
X7Y22D01*
X1530Y22D02*
X1537Y22D01*
X0Y21D02*
X7Y21D01*
X1530Y21D02*
X1537Y21D01*
X0Y20D02*
X7Y20D01*
X1530Y20D02*
X1537Y20D01*
X0Y19D02*
X7Y19D01*
X1530Y19D02*
X1537Y19D01*
X0Y18D02*
X7Y18D01*
X1530Y18D02*
X1537Y18D01*
X0Y17D02*
X7Y17D01*
X1530Y17D02*
X1537Y17D01*
X0Y16D02*
X7Y16D01*
X1530Y16D02*
X1537Y16D01*
X0Y15D02*
X7Y15D01*
X1530Y15D02*
X1537Y15D01*
X0Y14D02*
X7Y14D01*
X1530Y14D02*
X1537Y14D01*
X0Y13D02*
X7Y13D01*
X1530Y13D02*
X1537Y13D01*
X0Y12D02*
X7Y12D01*
X1530Y12D02*
X1537Y12D01*
X0Y11D02*
X7Y11D01*
X1530Y11D02*
X1537Y11D01*
X0Y10D02*
X7Y10D01*
X1530Y10D02*
X1537Y10D01*
X0Y9D02*
X7Y9D01*
X1530Y9D02*
X1537Y9D01*
X0Y8D02*
X1537Y8D01*
X0Y7D02*
X1537Y7D01*
X0Y6D02*
X1537Y6D01*
X0Y5D02*
X1537Y5D01*
X0Y4D02*
X1537Y4D01*
X0Y3D02*
X1537Y3D01*
X0Y2D02*
X1537Y2D01*
X0Y1D02*
X1537Y1D01*
D02*
G04 End of Silk1*
M02*