G04 MADE WITH FRITZING*
G04 WWW.FRITZING.ORG*
G04 DOUBLE SIDED*
G04 HOLES PLATED*
G04 CONTOUR ON CENTER OF CONTOUR VECTOR*
%ASAXBY*%
%FSLAX23Y23*%
%MOIN*%
%OFA0B0*%
%SFA1.0B1.0*%
%ADD10C,0.078000*%
%ADD11C,0.075000*%
%ADD12C,0.082000*%
%ADD13C,0.057000*%
%ADD14R,0.078000X0.078000*%
%ADD15R,0.082000X0.082000*%
%ADD16C,0.032000*%
%ADD17C,0.024000*%
%LNCOPPER0*%
G90*
G70*
G54D10*
X1440Y317D03*
X1340Y317D03*
X1240Y317D03*
G54D11*
X140Y517D03*
X140Y117D03*
X840Y317D03*
X940Y317D03*
X1040Y317D03*
X940Y117D03*
X1340Y117D03*
G54D12*
X340Y217D03*
X440Y217D03*
X540Y217D03*
G54D13*
X1161Y517D03*
X1240Y517D03*
X361Y517D03*
X440Y517D03*
X761Y517D03*
X840Y517D03*
G54D14*
X1440Y317D03*
G54D15*
X340Y217D03*
G54D16*
X338Y117D02*
X339Y179D01*
D02*
X840Y117D02*
X338Y117D01*
D02*
X942Y419D02*
X941Y351D01*
D02*
X540Y255D02*
X538Y419D01*
D02*
X538Y419D02*
X942Y419D01*
D02*
X840Y283D02*
X840Y117D01*
G54D17*
D02*
X1342Y219D02*
X1040Y219D01*
D02*
X1040Y219D02*
X1040Y288D01*
D02*
X1341Y146D02*
X1342Y219D01*
D02*
X1342Y219D02*
X1440Y219D01*
D02*
X1440Y219D02*
X1440Y287D01*
D02*
X169Y517D02*
X336Y517D01*
D02*
X640Y619D02*
X338Y619D01*
D02*
X338Y619D02*
X356Y541D01*
D02*
X640Y517D02*
X640Y619D01*
D02*
X736Y517D02*
X640Y517D01*
D02*
X940Y288D02*
X940Y146D01*
D02*
X308Y218D02*
X241Y219D01*
D02*
X241Y219D02*
X241Y117D01*
D02*
X241Y117D02*
X169Y117D01*
D02*
X1136Y517D02*
X865Y517D01*
D02*
X440Y249D02*
X440Y492D01*
D02*
X1340Y347D02*
X1342Y517D01*
D02*
X1342Y517D02*
X1265Y517D01*
G04 End of Copper0*
M02*